<?xml version="1.0" encoding="us-ascii" standalone="no"?><svg xmlns="http://www.w3.org/2000/svg" xmlns:xlink="http://www.w3.org/1999/xlink" contentStyleType="text/css" height="1105px" preserveAspectRatio="none" style="width:4691px;height:1105px;background:#FFFFFF;" version="1.1" viewBox="0 0 4691 1105" width="4691px" zoomAndPan="magnify"><defs/><g><!--cluster com--><g id="cluster_com"><path d="M8.5,6.0137 L38.5,6.0137 A3.75,3.75 0 0 1 41,8.5137 L48,30.6348 L3190.5,30.6348 A2.5,2.5 0 0 1 3193,33.1348 L3193,1096.0137 A2.5,2.5 0 0 1 3190.5,1098.5137 L8.5,1098.5137 A2.5,2.5 0 0 1 6,1096.0137 L6,8.5137 A2.5,2.5 0 0 1 8.5,6.0137 " fill="none" style="stroke:#000000;stroke-width:1.5;"/><line style="stroke:#000000;stroke-width:1.5;" x1="6" x2="48" y1="30.6348" y2="30.6348"/><text fill="#000000" font-family="sans-serif" font-size="14" font-weight="bold" lengthAdjust="spacing" textLength="29" x="10" y="23.1211">com</text></g><!--cluster example--><g id="cluster_example"><path d="M32.5,51.0137 L92.5,51.0137 A3.75,3.75 0 0 1 95,53.5137 L102,75.6348 L3166.5,75.6348 A2.5,2.5 0 0 1 3169,78.1348 L3169,1072.0137 A2.5,2.5 0 0 1 3166.5,1074.5137 L32.5,1074.5137 A2.5,2.5 0 0 1 30,1072.0137 L30,53.5137 A2.5,2.5 0 0 1 32.5,51.0137 " fill="none" style="stroke:#000000;stroke-width:1.5;"/><line style="stroke:#000000;stroke-width:1.5;" x1="30" x2="102" y1="75.6348" y2="75.6348"/><text fill="#000000" font-family="sans-serif" font-size="14" font-weight="bold" lengthAdjust="spacing" textLength="59" x="34" y="68.1211">example</text></g><!--cluster androidx--><g id="cluster_androidx"><path d="M3219.5,7.5137 L3282.5,7.5137 A3.75,3.75 0 0 1 3285,10.0137 L3292,32.1348 L4681.5,32.1348 A2.5,2.5 0 0 1 4684,34.6348 L4684,281.0137 A2.5,2.5 0 0 1 4681.5,283.5137 L3219.5,283.5137 A2.5,2.5 0 0 1 3217,281.0137 L3217,10.0137 A2.5,2.5 0 0 1 3219.5,7.5137 " fill="none" style="stroke:#000000;stroke-width:1.5;"/><line style="stroke:#000000;stroke-width:1.5;" x1="3217" x2="3292" y1="32.1348" y2="32.1348"/><text fill="#000000" font-family="sans-serif" font-size="14" font-weight="bold" lengthAdjust="spacing" textLength="62" x="3221" y="24.6211">androidx</text></g><!--cluster fragment--><g id="cluster_fragment"><path d="M3627.5,52.5137 L3691.5,52.5137 A3.75,3.75 0 0 1 3694,55.0137 L3701,77.1348 L4657.5,77.1348 A2.5,2.5 0 0 1 4660,79.6348 L4660,257.0137 A2.5,2.5 0 0 1 4657.5,259.5137 L3627.5,259.5137 A2.5,2.5 0 0 1 3625,257.0137 L3625,55.0137 A2.5,2.5 0 0 1 3627.5,52.5137 " fill="none" style="stroke:#000000;stroke-width:1.5;"/><line style="stroke:#000000;stroke-width:1.5;" x1="3625" x2="3701" y1="77.1348" y2="77.1348"/><text fill="#000000" font-family="sans-serif" font-size="14" font-weight="bold" lengthAdjust="spacing" textLength="63" x="3629" y="69.6211">fragment</text></g><!--cluster app--><g id="cluster_app"><path d="M3651.5,97.5137 L3678.5,97.5137 A3.75,3.75 0 0 1 3681,100.0137 L3688,122.1348 L4633.5,122.1348 A2.5,2.5 0 0 1 4636,124.6348 L4636,233.0137 A2.5,2.5 0 0 1 4633.5,235.5137 L3651.5,235.5137 A2.5,2.5 0 0 1 3649,233.0137 L3649,100.0137 A2.5,2.5 0 0 1 3651.5,97.5137 " fill="none" style="stroke:#000000;stroke-width:1.5;"/><line style="stroke:#000000;stroke-width:1.5;" x1="3649" x2="3688" y1="122.1348" y2="122.1348"/><text fill="#000000" font-family="sans-serif" font-size="14" font-weight="bold" lengthAdjust="spacing" textLength="26" x="3653" y="114.6211">app</text></g><!--cluster appcompat--><g id="cluster_appcompat"><path d="M3243.5,61.5137 L3321.5,61.5137 A3.75,3.75 0 0 1 3324,64.0137 L3331,86.1348 L3598.5,86.1348 A2.5,2.5 0 0 1 3601,88.6348 L3601,248.0137 A2.5,2.5 0 0 1 3598.5,250.5137 L3243.5,250.5137 A2.5,2.5 0 0 1 3241,248.0137 L3241,64.0137 A2.5,2.5 0 0 1 3243.5,61.5137 " fill="none" style="stroke:#000000;stroke-width:1.5;"/><line style="stroke:#000000;stroke-width:1.5;" x1="3241" x2="3331" y1="86.1348" y2="86.1348"/><text fill="#000000" font-family="sans-serif" font-size="14" font-weight="bold" lengthAdjust="spacing" textLength="77" x="3245" y="78.6211">appcompat</text></g><!--cluster app--><g id="cluster_app"><path d="M3267.5,106.5137 L3294.5,106.5137 A3.75,3.75 0 0 1 3297,109.0137 L3304,131.1348 L3574.5,131.1348 A2.5,2.5 0 0 1 3577,133.6348 L3577,224.0137 A2.5,2.5 0 0 1 3574.5,226.5137 L3267.5,226.5137 A2.5,2.5 0 0 1 3265,224.0137 L3265,109.0137 A2.5,2.5 0 0 1 3267.5,106.5137 " fill="none" style="stroke:#000000;stroke-width:1.5;"/><line style="stroke:#000000;stroke-width:1.5;" x1="3265" x2="3304" y1="131.1348" y2="131.1348"/><text fill="#000000" font-family="sans-serif" font-size="14" font-weight="bold" lengthAdjust="spacing" textLength="26" x="3269" y="123.6211">app</text></g><!--class ThreadExchange--><g id="elem_ThreadExchange"><rect codeLine="5" fill="#F1F1F1" height="48" id="ThreadExchange" rx="2.5" ry="2.5" style="stroke:#181818;stroke-width:0.5;" width="140" x="723" y="153.0137"/><ellipse cx="738" cy="169.0137" fill="#ADD1B2" rx="11" ry="11" style="stroke:#181818;stroke-width:1.0;"/><path d="M740.7656,164.8887 Q740.9219,164.6699 741.1094,164.5605 Q741.2969,164.4512 741.5156,164.4512 Q741.8906,164.4512 742.125,164.7168 Q742.3594,164.9668 742.3594,165.5762 L742.3594,167.0293 Q742.3594,167.6387 742.125,167.9043 Q741.8906,168.1699 741.5156,168.1699 Q741.1719,168.1699 740.9688,167.9668 Q740.7656,167.7793 740.6563,167.2637 Q740.6094,166.9043 740.4219,166.7168 Q740.0938,166.3418 739.4844,166.123 Q738.875,165.9043 738.25,165.9043 Q737.4844,165.9043 736.8438,166.2324 Q736.2188,166.5605 735.7188,167.3105 Q735.2344,168.0605 735.2344,169.0918 L735.2344,170.1855 Q735.2344,171.4199 736.125,172.248 Q737.0156,173.0605 738.6094,173.0605 Q739.5469,173.0605 740.2031,172.8105 Q740.5938,172.6543 741.0156,172.2168 Q741.2813,171.9512 741.4219,171.873 Q741.5781,171.7949 741.7813,171.7949 Q742.1094,171.7949 742.3594,172.0605 Q742.625,172.3105 742.625,172.6543 Q742.625,172.998 742.2813,173.4043 Q741.7813,173.9824 740.9844,174.3105 Q739.9063,174.7637 738.6094,174.7637 Q737.0938,174.7637 735.8906,174.1387 Q734.9063,173.6387 734.2188,172.5762 Q733.5313,171.498 733.5313,170.2168 L733.5313,169.0605 Q733.5313,167.7324 734.1406,166.5918 Q734.7656,165.4355 735.8594,164.8262 Q736.9531,164.2012 738.1875,164.2012 Q738.9219,164.2012 739.5625,164.373 Q740.2188,164.5293 740.7656,164.8887 Z " fill="#000000"/><text fill="#000000" font-family="sans-serif" font-size="14" lengthAdjust="spacing" textLength="108" x="752" y="174.8105">ThreadExchange</text><line style="stroke:#181818;stroke-width:0.5;" x1="724" x2="862" y1="185.0137" y2="185.0137"/><line style="stroke:#181818;stroke-width:0.5;" x1="724" x2="862" y1="193.0137" y2="193.0137"/></g><!--class ItemListFragment--><g id="elem_ItemListFragment"><rect codeLine="8" fill="#F1F1F1" height="178.3477" id="ItemListFragment" rx="2.5" ry="2.5" style="stroke:#181818;stroke-width:0.5;" width="642" x="1415" y="88.0137"/><ellipse cx="1677.25" cy="104.0137" fill="#ADD1B2" rx="11" ry="11" style="stroke:#181818;stroke-width:1.0;"/><path d="M1680.0156,99.8887 Q1680.1719,99.6699 1680.3594,99.5605 Q1680.5469,99.4512 1680.7656,99.4512 Q1681.1406,99.4512 1681.375,99.7168 Q1681.6094,99.9668 1681.6094,100.5762 L1681.6094,102.0293 Q1681.6094,102.6387 1681.375,102.9043 Q1681.1406,103.1699 1680.7656,103.1699 Q1680.4219,103.1699 1680.2188,102.9668 Q1680.0156,102.7793 1679.9063,102.2637 Q1679.8594,101.9043 1679.6719,101.7168 Q1679.3438,101.3418 1678.7344,101.123 Q1678.125,100.9043 1677.5,100.9043 Q1676.7344,100.9043 1676.0938,101.2324 Q1675.4688,101.5605 1674.9688,102.3105 Q1674.4844,103.0605 1674.4844,104.0918 L1674.4844,105.1855 Q1674.4844,106.4199 1675.375,107.248 Q1676.2656,108.0605 1677.8594,108.0605 Q1678.7969,108.0605 1679.4531,107.8105 Q1679.8438,107.6543 1680.2656,107.2168 Q1680.5313,106.9512 1680.6719,106.873 Q1680.8281,106.7949 1681.0313,106.7949 Q1681.3594,106.7949 1681.6094,107.0605 Q1681.875,107.3105 1681.875,107.6543 Q1681.875,107.998 1681.5313,108.4043 Q1681.0313,108.9824 1680.2344,109.3105 Q1679.1563,109.7637 1677.8594,109.7637 Q1676.3438,109.7637 1675.1406,109.1387 Q1674.1563,108.6387 1673.4688,107.5762 Q1672.7813,106.498 1672.7813,105.2168 L1672.7813,104.0605 Q1672.7813,102.7324 1673.3906,101.5918 Q1674.0156,100.4355 1675.1094,99.8262 Q1676.2031,99.2012 1677.4375,99.2012 Q1678.1719,99.2012 1678.8125,99.373 Q1679.4688,99.5293 1680.0156,99.8887 Z " fill="#000000"/><text fill="#000000" font-family="sans-serif" font-size="14" lengthAdjust="spacing" textLength="109" x="1697.75" y="109.8105">ItemListFragment</text><line style="stroke:#181818;stroke-width:0.5;" x1="1416" x2="2056" y1="120.0137" y2="120.0137"/><rect fill="none" height="6" style="stroke:#C82930;stroke-width:1.0;" width="6" x="1423" y="131.8242"/><text fill="#000000" font-family="sans-serif" font-size="14" lengthAdjust="spacing" textLength="222" x="1435" y="139.1211">FragmentItemListBinding? _binding</text><ellipse cx="1426" cy="153.4453" fill="none" rx="3" ry="3" style="stroke:#038048;stroke-width:1.0;"/><text fill="#000000" font-family="sans-serif" font-size="14" lengthAdjust="spacing" textLength="46" x="1435" y="157.7422">binding</text><line style="stroke:#181818;stroke-width:0.5;" x1="1416" x2="2056" y1="165.2559" y2="165.2559"/><ellipse cx="1426" cy="180.0664" fill="#84BE84" rx="3" ry="3" style="stroke:#038048;stroke-width:1.0;"/><text fill="#000000" font-family="sans-serif" font-size="14" lengthAdjust="spacing" textLength="616" x="1435" y="184.3633">onCreateView(inflater: LayoutInflater, container: ViewGroup?, savedInstanceState: Bundle?): View</text><ellipse cx="1426" cy="198.6875" fill="#84BE84" rx="3" ry="3" style="stroke:#038048;stroke-width:1.0;"/><text fill="#000000" font-family="sans-serif" font-size="14" lengthAdjust="spacing" textLength="362" x="1435" y="202.9844">onViewCreated(view: View, savedInstanceState: Bundle?)</text><ellipse cx="1426" cy="217.3086" fill="#84BE84" rx="3" ry="3" style="stroke:#038048;stroke-width:1.0;"/><text fill="#000000" font-family="sans-serif" font-size="14" lengthAdjust="spacing" textLength="131" x="1435" y="221.6055">iniciarRecyclerView()</text><ellipse cx="1426" cy="235.9297" fill="#84BE84" rx="3" ry="3" style="stroke:#038048;stroke-width:1.0;"/><text fill="#000000" font-family="sans-serif" font-size="14" lengthAdjust="spacing" textLength="187" x="1435" y="240.2266">onItemSelected(datos: Datos)</text><ellipse cx="1426" cy="254.5508" fill="#84BE84" rx="3" ry="3" style="stroke:#038048;stroke-width:1.0;"/><text fill="#000000" font-family="sans-serif" font-size="14" lengthAdjust="spacing" textLength="104" x="1435" y="258.8477">onDestroyView()</text></g><!--class FragmentNegro--><g id="elem_FragmentNegro"><rect codeLine="18" fill="#F1F1F1" height="141.1055" id="FragmentNegro" rx="2.5" ry="2.5" style="stroke:#181818;stroke-width:0.5;" width="642" x="2092" y="106.5137"/><ellipse cx="2359.25" cy="122.5137" fill="#ADD1B2" rx="11" ry="11" style="stroke:#181818;stroke-width:1.0;"/><path d="M2362.0156,118.3887 Q2362.1719,118.1699 2362.3594,118.0605 Q2362.5469,117.9512 2362.7656,117.9512 Q2363.1406,117.9512 2363.375,118.2168 Q2363.6094,118.4668 2363.6094,119.0762 L2363.6094,120.5293 Q2363.6094,121.1387 2363.375,121.4043 Q2363.1406,121.6699 2362.7656,121.6699 Q2362.4219,121.6699 2362.2188,121.4668 Q2362.0156,121.2793 2361.9063,120.7637 Q2361.8594,120.4043 2361.6719,120.2168 Q2361.3438,119.8418 2360.7344,119.623 Q2360.125,119.4043 2359.5,119.4043 Q2358.7344,119.4043 2358.0938,119.7324 Q2357.4688,120.0605 2356.9688,120.8105 Q2356.4844,121.5605 2356.4844,122.5918 L2356.4844,123.6855 Q2356.4844,124.9199 2357.375,125.748 Q2358.2656,126.5605 2359.8594,126.5605 Q2360.7969,126.5605 2361.4531,126.3105 Q2361.8438,126.1543 2362.2656,125.7168 Q2362.5313,125.4512 2362.6719,125.373 Q2362.8281,125.2949 2363.0313,125.2949 Q2363.3594,125.2949 2363.6094,125.5605 Q2363.875,125.8105 2363.875,126.1543 Q2363.875,126.498 2363.5313,126.9043 Q2363.0313,127.4824 2362.2344,127.8105 Q2361.1563,128.2637 2359.8594,128.2637 Q2358.3438,128.2637 2357.1406,127.6387 Q2356.1563,127.1387 2355.4688,126.0762 Q2354.7813,124.998 2354.7813,123.7168 L2354.7813,122.5605 Q2354.7813,121.2324 2355.3906,120.0918 Q2356.0156,118.9355 2357.1094,118.3262 Q2358.2031,117.7012 2359.4375,117.7012 Q2360.1719,117.7012 2360.8125,117.873 Q2361.4688,118.0293 2362.0156,118.3887 Z " fill="#000000"/><text fill="#000000" font-family="sans-serif" font-size="14" lengthAdjust="spacing" textLength="99" x="2379.75" y="128.3105">FragmentNegro</text><line style="stroke:#181818;stroke-width:0.5;" x1="2093" x2="2733" y1="138.5137" y2="138.5137"/><rect fill="none" height="6" style="stroke:#C82930;stroke-width:1.0;" width="6" x="2100" y="150.3242"/><text fill="#000000" font-family="sans-serif" font-size="14" lengthAdjust="spacing" textLength="212" x="2112" y="157.6211">FragmentNegroBinding? _binding</text><ellipse cx="2103" cy="171.9453" fill="none" rx="3" ry="3" style="stroke:#038048;stroke-width:1.0;"/><text fill="#000000" font-family="sans-serif" font-size="14" lengthAdjust="spacing" textLength="46" x="2112" y="176.2422">binding</text><line style="stroke:#181818;stroke-width:0.5;" x1="2093" x2="2733" y1="183.7559" y2="183.7559"/><ellipse cx="2103" cy="198.5664" fill="#84BE84" rx="3" ry="3" style="stroke:#038048;stroke-width:1.0;"/><text fill="#000000" font-family="sans-serif" font-size="14" lengthAdjust="spacing" textLength="616" x="2112" y="202.8633">onCreateView(inflater: LayoutInflater, container: ViewGroup?, savedInstanceState: Bundle?): View</text><ellipse cx="2103" cy="217.1875" fill="#84BE84" rx="3" ry="3" style="stroke:#038048;stroke-width:1.0;"/><text fill="#000000" font-family="sans-serif" font-size="14" lengthAdjust="spacing" textLength="104" x="2112" y="221.4844">onDestroyView()</text><ellipse cx="2103" cy="235.8086" fill="#84BE84" rx="3" ry="3" style="stroke:#038048;stroke-width:1.0;"/><text fill="#000000" font-family="sans-serif" font-size="14" lengthAdjust="spacing" textLength="104" x="2112" y="240.1055">closeFragment()</text></g><!--class Datos--><g id="elem_Datos"><rect codeLine="26" fill="#F1F1F1" height="48" id="Datos" rx="2.5" ry="2.5" style="stroke:#181818;stroke-width:0.5;" width="69" x="2769.5" y="153.0137"/><ellipse cx="2784.5" cy="169.0137" fill="#ADD1B2" rx="11" ry="11" style="stroke:#181818;stroke-width:1.0;"/><path d="M2787.2656,164.8887 Q2787.4219,164.6699 2787.6094,164.5605 Q2787.7969,164.4512 2788.0156,164.4512 Q2788.3906,164.4512 2788.625,164.7168 Q2788.8594,164.9668 2788.8594,165.5762 L2788.8594,167.0293 Q2788.8594,167.6387 2788.625,167.9043 Q2788.3906,168.1699 2788.0156,168.1699 Q2787.6719,168.1699 2787.4688,167.9668 Q2787.2656,167.7793 2787.1563,167.2637 Q2787.1094,166.9043 2786.9219,166.7168 Q2786.5938,166.3418 2785.9844,166.123 Q2785.375,165.9043 2784.75,165.9043 Q2783.9844,165.9043 2783.3438,166.2324 Q2782.7188,166.5605 2782.2188,167.3105 Q2781.7344,168.0605 2781.7344,169.0918 L2781.7344,170.1855 Q2781.7344,171.4199 2782.625,172.248 Q2783.5156,173.0605 2785.1094,173.0605 Q2786.0469,173.0605 2786.7031,172.8105 Q2787.0938,172.6543 2787.5156,172.2168 Q2787.7813,171.9512 2787.9219,171.873 Q2788.0781,171.7949 2788.2813,171.7949 Q2788.6094,171.7949 2788.8594,172.0605 Q2789.125,172.3105 2789.125,172.6543 Q2789.125,172.998 2788.7813,173.4043 Q2788.2813,173.9824 2787.4844,174.3105 Q2786.4063,174.7637 2785.1094,174.7637 Q2783.5938,174.7637 2782.3906,174.1387 Q2781.4063,173.6387 2780.7188,172.5762 Q2780.0313,171.498 2780.0313,170.2168 L2780.0313,169.0605 Q2780.0313,167.7324 2780.6406,166.5918 Q2781.2656,165.4355 2782.3594,164.8262 Q2783.4531,164.2012 2784.6875,164.2012 Q2785.4219,164.2012 2786.0625,164.373 Q2786.7188,164.5293 2787.2656,164.8887 Z " fill="#000000"/><text fill="#000000" font-family="sans-serif" font-size="14" lengthAdjust="spacing" textLength="37" x="2798.5" y="174.8105">Datos</text><line style="stroke:#181818;stroke-width:0.5;" x1="2770.5" x2="2837.5" y1="185.0137" y2="185.0137"/><line style="stroke:#181818;stroke-width:0.5;" x1="2770.5" x2="2837.5" y1="193.0137" y2="193.0137"/></g><!--class ReciclerViewActivity--><g id="elem_ReciclerViewActivity"><rect codeLine="29" fill="#F1F1F1" height="122.4844" id="ReciclerViewActivity" rx="2.5" ry="2.5" style="stroke:#181818;stroke-width:0.5;" width="279" x="2873.5" y="116.0137"/><ellipse cx="2946.75" cy="132.0137" fill="#ADD1B2" rx="11" ry="11" style="stroke:#181818;stroke-width:1.0;"/><path d="M2949.5156,127.8887 Q2949.6719,127.6699 2949.8594,127.5605 Q2950.0469,127.4512 2950.2656,127.4512 Q2950.6406,127.4512 2950.875,127.7168 Q2951.1094,127.9668 2951.1094,128.5762 L2951.1094,130.0293 Q2951.1094,130.6387 2950.875,130.9043 Q2950.6406,131.1699 2950.2656,131.1699 Q2949.9219,131.1699 2949.7188,130.9668 Q2949.5156,130.7793 2949.4063,130.2637 Q2949.3594,129.9043 2949.1719,129.7168 Q2948.8438,129.3418 2948.2344,129.123 Q2947.625,128.9043 2947,128.9043 Q2946.2344,128.9043 2945.5938,129.2324 Q2944.9688,129.5605 2944.4688,130.3105 Q2943.9844,131.0605 2943.9844,132.0918 L2943.9844,133.1855 Q2943.9844,134.4199 2944.875,135.248 Q2945.7656,136.0605 2947.3594,136.0605 Q2948.2969,136.0605 2948.9531,135.8105 Q2949.3438,135.6543 2949.7656,135.2168 Q2950.0313,134.9512 2950.1719,134.873 Q2950.3281,134.7949 2950.5313,134.7949 Q2950.8594,134.7949 2951.1094,135.0605 Q2951.375,135.3105 2951.375,135.6543 Q2951.375,135.998 2951.0313,136.4043 Q2950.5313,136.9824 2949.7344,137.3105 Q2948.6563,137.7637 2947.3594,137.7637 Q2945.8438,137.7637 2944.6406,137.1387 Q2943.6563,136.6387 2942.9688,135.5762 Q2942.2813,134.498 2942.2813,133.2168 L2942.2813,132.0605 Q2942.2813,130.7324 2942.8906,129.5918 Q2943.5156,128.4355 2944.6094,127.8262 Q2945.7031,127.2012 2946.9375,127.2012 Q2947.6719,127.2012 2948.3125,127.373 Q2948.9688,127.5293 2949.5156,127.8887 Z " fill="#000000"/><text fill="#000000" font-family="sans-serif" font-size="14" lengthAdjust="spacing" textLength="124" x="2967.25" y="137.8105">ReciclerViewActivity</text><line style="stroke:#181818;stroke-width:0.5;" x1="2874.5" x2="3151.5" y1="148.0137" y2="148.0137"/><rect fill="none" height="6" style="stroke:#C82930;stroke-width:1.0;" width="6" x="2881.5" y="159.8242"/><text fill="#000000" font-family="sans-serif" font-size="14" lengthAdjust="spacing" textLength="238" x="2893.5" y="167.1211">FragmentReciclerViewBinding binding</text><line style="stroke:#181818;stroke-width:0.5;" x1="2874.5" x2="3151.5" y1="174.6348" y2="174.6348"/><ellipse cx="2884.5" cy="189.4453" fill="#84BE84" rx="3" ry="3" style="stroke:#038048;stroke-width:1.0;"/><text fill="#000000" font-family="sans-serif" font-size="14" lengthAdjust="spacing" textLength="253" x="2893.5" y="193.7422">onCreate(savedInstanceState: Bundle?)</text><ellipse cx="2884.5" cy="208.0664" fill="#84BE84" rx="3" ry="3" style="stroke:#038048;stroke-width:1.0;"/><text fill="#000000" font-family="sans-serif" font-size="14" lengthAdjust="spacing" textLength="131" x="2893.5" y="212.3633">iniciarRecyclerView()</text><ellipse cx="2884.5" cy="226.6875" fill="#84BE84" rx="3" ry="3" style="stroke:#038048;stroke-width:1.0;"/><text fill="#000000" font-family="sans-serif" font-size="14" lengthAdjust="spacing" textLength="187" x="2893.5" y="230.9844">onItemSelected(datos: Datos)</text></g><!--class MainActivity--><g id="elem_MainActivity"><rect codeLine="36" fill="#F1F1F1" height="103.8633" id="MainActivity" rx="2.5" ry="2.5" style="stroke:#181818;stroke-width:0.5;" width="279" x="254.5" y="385.5137"/><ellipse cx="352.75" cy="401.5137" fill="#ADD1B2" rx="11" ry="11" style="stroke:#181818;stroke-width:1.0;"/><path d="M355.5156,397.3887 Q355.6719,397.1699 355.8594,397.0605 Q356.0469,396.9512 356.2656,396.9512 Q356.6406,396.9512 356.875,397.2168 Q357.1094,397.4668 357.1094,398.0762 L357.1094,399.5293 Q357.1094,400.1387 356.875,400.4043 Q356.6406,400.6699 356.2656,400.6699 Q355.9219,400.6699 355.7188,400.4668 Q355.5156,400.2793 355.4063,399.7637 Q355.3594,399.4043 355.1719,399.2168 Q354.8438,398.8418 354.2344,398.623 Q353.625,398.4043 353,398.4043 Q352.2344,398.4043 351.5938,398.7324 Q350.9688,399.0605 350.4688,399.8105 Q349.9844,400.5605 349.9844,401.5918 L349.9844,402.6855 Q349.9844,403.9199 350.875,404.748 Q351.7656,405.5605 353.3594,405.5605 Q354.2969,405.5605 354.9531,405.3105 Q355.3438,405.1543 355.7656,404.7168 Q356.0313,404.4512 356.1719,404.373 Q356.3281,404.2949 356.5313,404.2949 Q356.8594,404.2949 357.1094,404.5605 Q357.375,404.8105 357.375,405.1543 Q357.375,405.498 357.0313,405.9043 Q356.5313,406.4824 355.7344,406.8105 Q354.6563,407.2637 353.3594,407.2637 Q351.8438,407.2637 350.6406,406.6387 Q349.6563,406.1387 348.9688,405.0762 Q348.2813,403.998 348.2813,402.7168 L348.2813,401.5605 Q348.2813,400.2324 348.8906,399.0918 Q349.5156,397.9355 350.6094,397.3262 Q351.7031,396.7012 352.9375,396.7012 Q353.6719,396.7012 354.3125,396.873 Q354.9688,397.0293 355.5156,397.3887 Z " fill="#000000"/><text fill="#000000" font-family="sans-serif" font-size="14" lengthAdjust="spacing" textLength="74" x="373.25" y="407.3105">MainActivity</text><line style="stroke:#181818;stroke-width:0.5;" x1="255.5" x2="532.5" y1="417.5137" y2="417.5137"/><rect fill="none" height="6" style="stroke:#C82930;stroke-width:1.0;" width="6" x="262.5" y="429.3242"/><text fill="#000000" font-family="sans-serif" font-size="14" lengthAdjust="spacing" textLength="171" x="274.5" y="436.6211">ActivityMainBinding binding</text><line style="stroke:#181818;stroke-width:0.5;" x1="255.5" x2="532.5" y1="444.1348" y2="444.1348"/><ellipse cx="265.5" cy="458.9453" fill="#84BE84" rx="3" ry="3" style="stroke:#038048;stroke-width:1.0;"/><text fill="#000000" font-family="sans-serif" font-size="14" lengthAdjust="spacing" textLength="253" x="274.5" y="463.2422">onCreate(savedInstanceState: Bundle?)</text><ellipse cx="265.5" cy="477.5664" fill="#84BE84" rx="3" ry="3" style="stroke:#038048;stroke-width:1.0;"/><text fill="#000000" font-family="sans-serif" font-size="14" lengthAdjust="spacing" textLength="208" x="274.5" y="481.8633">onSupportNavigateUp(): Boolean</text></g><!--class FragmentBlanco--><g id="elem_FragmentBlanco"><rect codeLine="42" fill="#F1F1F1" height="103.8633" id="FragmentBlanco" rx="2.5" ry="2.5" style="stroke:#181818;stroke-width:0.5;" width="642" x="569" y="385.5137"/><ellipse cx="833.75" cy="401.5137" fill="#ADD1B2" rx="11" ry="11" style="stroke:#181818;stroke-width:1.0;"/><path d="M836.5156,397.3887 Q836.6719,397.1699 836.8594,397.0605 Q837.0469,396.9512 837.2656,396.9512 Q837.6406,396.9512 837.875,397.2168 Q838.1094,397.4668 838.1094,398.0762 L838.1094,399.5293 Q838.1094,400.1387 837.875,400.4043 Q837.6406,400.6699 837.2656,400.6699 Q836.9219,400.6699 836.7188,400.4668 Q836.5156,400.2793 836.4063,399.7637 Q836.3594,399.4043 836.1719,399.2168 Q835.8438,398.8418 835.2344,398.623 Q834.625,398.4043 834,398.4043 Q833.2344,398.4043 832.5938,398.7324 Q831.9688,399.0605 831.4688,399.8105 Q830.9844,400.5605 830.9844,401.5918 L830.9844,402.6855 Q830.9844,403.9199 831.875,404.748 Q832.7656,405.5605 834.3594,405.5605 Q835.2969,405.5605 835.9531,405.3105 Q836.3438,405.1543 836.7656,404.7168 Q837.0313,404.4512 837.1719,404.373 Q837.3281,404.2949 837.5313,404.2949 Q837.8594,404.2949 838.1094,404.5605 Q838.375,404.8105 838.375,405.1543 Q838.375,405.498 838.0313,405.9043 Q837.5313,406.4824 836.7344,406.8105 Q835.6563,407.2637 834.3594,407.2637 Q832.8438,407.2637 831.6406,406.6387 Q830.6563,406.1387 829.9688,405.0762 Q829.2813,403.998 829.2813,402.7168 L829.2813,401.5605 Q829.2813,400.2324 829.8906,399.0918 Q830.5156,397.9355 831.6094,397.3262 Q832.7031,396.7012 833.9375,396.7012 Q834.6719,396.7012 835.3125,396.873 Q835.9688,397.0293 836.5156,397.3887 Z " fill="#000000"/><text fill="#000000" font-family="sans-serif" font-size="14" lengthAdjust="spacing" textLength="104" x="854.25" y="407.3105">FragmentBlanco</text><line style="stroke:#181818;stroke-width:0.5;" x1="570" x2="1210" y1="417.5137" y2="417.5137"/><rect fill="none" height="6" style="stroke:#C82930;stroke-width:1.0;" width="6" x="577" y="429.3242"/><text fill="#000000" font-family="sans-serif" font-size="14" lengthAdjust="spacing" textLength="217" x="589" y="436.6211">FragmentBlancoBinding? _binding</text><ellipse cx="580" cy="450.9453" fill="none" rx="3" ry="3" style="stroke:#038048;stroke-width:1.0;"/><text fill="#000000" font-family="sans-serif" font-size="14" lengthAdjust="spacing" textLength="46" x="589" y="455.2422">binding</text><line style="stroke:#181818;stroke-width:0.5;" x1="570" x2="1210" y1="462.7559" y2="462.7559"/><ellipse cx="580" cy="477.5664" fill="#84BE84" rx="3" ry="3" style="stroke:#038048;stroke-width:1.0;"/><text fill="#000000" font-family="sans-serif" font-size="14" lengthAdjust="spacing" textLength="616" x="589" y="481.8633">onCreateView(inflater: LayoutInflater, container: ViewGroup?, savedInstanceState: Bundle?): View</text></g><!--class ViewPagerFragment--><g id="elem_ViewPagerFragment"><rect codeLine="48" fill="#F1F1F1" height="103.8633" id="ViewPagerFragment" rx="2.5" ry="2.5" style="stroke:#181818;stroke-width:0.5;" width="642" x="1246" y="385.5137"/><ellipse cx="1498.75" cy="401.5137" fill="#ADD1B2" rx="11" ry="11" style="stroke:#181818;stroke-width:1.0;"/><path d="M1501.5156,397.3887 Q1501.6719,397.1699 1501.8594,397.0605 Q1502.0469,396.9512 1502.2656,396.9512 Q1502.6406,396.9512 1502.875,397.2168 Q1503.1094,397.4668 1503.1094,398.0762 L1503.1094,399.5293 Q1503.1094,400.1387 1502.875,400.4043 Q1502.6406,400.6699 1502.2656,400.6699 Q1501.9219,400.6699 1501.7188,400.4668 Q1501.5156,400.2793 1501.4063,399.7637 Q1501.3594,399.4043 1501.1719,399.2168 Q1500.8438,398.8418 1500.2344,398.623 Q1499.625,398.4043 1499,398.4043 Q1498.2344,398.4043 1497.5938,398.7324 Q1496.9688,399.0605 1496.4688,399.8105 Q1495.9844,400.5605 1495.9844,401.5918 L1495.9844,402.6855 Q1495.9844,403.9199 1496.875,404.748 Q1497.7656,405.5605 1499.3594,405.5605 Q1500.2969,405.5605 1500.9531,405.3105 Q1501.3438,405.1543 1501.7656,404.7168 Q1502.0313,404.4512 1502.1719,404.373 Q1502.3281,404.2949 1502.5313,404.2949 Q1502.8594,404.2949 1503.1094,404.5605 Q1503.375,404.8105 1503.375,405.1543 Q1503.375,405.498 1503.0313,405.9043 Q1502.5313,406.4824 1501.7344,406.8105 Q1500.6563,407.2637 1499.3594,407.2637 Q1497.8438,407.2637 1496.6406,406.6387 Q1495.6563,406.1387 1494.9688,405.0762 Q1494.2813,403.998 1494.2813,402.7168 L1494.2813,401.5605 Q1494.2813,400.2324 1494.8906,399.0918 Q1495.5156,397.9355 1496.6094,397.3262 Q1497.7031,396.7012 1498.9375,396.7012 Q1499.6719,396.7012 1500.3125,396.873 Q1500.9688,397.0293 1501.5156,397.3887 Z " fill="#000000"/><text fill="#000000" font-family="sans-serif" font-size="14" lengthAdjust="spacing" textLength="128" x="1519.25" y="407.3105">ViewPagerFragment</text><line style="stroke:#181818;stroke-width:0.5;" x1="1247" x2="1887" y1="417.5137" y2="417.5137"/><rect fill="none" height="6" style="stroke:#C82930;stroke-width:1.0;" width="6" x="1254" y="429.3242"/><text fill="#000000" font-family="sans-serif" font-size="14" lengthAdjust="spacing" textLength="241" x="1266" y="436.6211">FragmentViewPagerBinding? _binding</text><ellipse cx="1257" cy="450.9453" fill="none" rx="3" ry="3" style="stroke:#038048;stroke-width:1.0;"/><text fill="#000000" font-family="sans-serif" font-size="14" lengthAdjust="spacing" textLength="46" x="1266" y="455.2422">binding</text><line style="stroke:#181818;stroke-width:0.5;" x1="1247" x2="1887" y1="462.7559" y2="462.7559"/><ellipse cx="1257" cy="477.5664" fill="#84BE84" rx="3" ry="3" style="stroke:#038048;stroke-width:1.0;"/><text fill="#000000" font-family="sans-serif" font-size="14" lengthAdjust="spacing" textLength="616" x="1266" y="481.8633">onCreateView(inflater: LayoutInflater, container: ViewGroup?, savedInstanceState: Bundle?): View</text></g><!--class RopaProvider$Companion--><g id="elem_RopaProvider$Companion"><rect codeLine="54" fill="#F1F1F1" height="66.6211" id="RopaProvider$Companion" rx="2.5" ry="2.5" style="stroke:#181818;stroke-width:0.5;" width="199" x="1923.5" y="404.0137"/><ellipse cx="1938.5" cy="420.0137" fill="#ADD1B2" rx="11" ry="11" style="stroke:#181818;stroke-width:1.0;"/><path d="M1941.2656,415.8887 Q1941.4219,415.6699 1941.6094,415.5605 Q1941.7969,415.4512 1942.0156,415.4512 Q1942.3906,415.4512 1942.625,415.7168 Q1942.8594,415.9668 1942.8594,416.5762 L1942.8594,418.0293 Q1942.8594,418.6387 1942.625,418.9043 Q1942.3906,419.1699 1942.0156,419.1699 Q1941.6719,419.1699 1941.4688,418.9668 Q1941.2656,418.7793 1941.1563,418.2637 Q1941.1094,417.9043 1940.9219,417.7168 Q1940.5938,417.3418 1939.9844,417.123 Q1939.375,416.9043 1938.75,416.9043 Q1937.9844,416.9043 1937.3438,417.2324 Q1936.7188,417.5605 1936.2188,418.3105 Q1935.7344,419.0605 1935.7344,420.0918 L1935.7344,421.1855 Q1935.7344,422.4199 1936.625,423.248 Q1937.5156,424.0605 1939.1094,424.0605 Q1940.0469,424.0605 1940.7031,423.8105 Q1941.0938,423.6543 1941.5156,423.2168 Q1941.7813,422.9512 1941.9219,422.873 Q1942.0781,422.7949 1942.2813,422.7949 Q1942.6094,422.7949 1942.8594,423.0605 Q1943.125,423.3105 1943.125,423.6543 Q1943.125,423.998 1942.7813,424.4043 Q1942.2813,424.9824 1941.4844,425.3105 Q1940.4063,425.7637 1939.1094,425.7637 Q1937.5938,425.7637 1936.3906,425.1387 Q1935.4063,424.6387 1934.7188,423.5762 Q1934.0313,422.498 1934.0313,421.2168 L1934.0313,420.0605 Q1934.0313,418.7324 1934.6406,417.5918 Q1935.2656,416.4355 1936.3594,415.8262 Q1937.4531,415.2012 1938.6875,415.2012 Q1939.4219,415.2012 1940.0625,415.373 Q1940.7188,415.5293 1941.2656,415.8887 Z " fill="#000000"/><text fill="#000000" font-family="sans-serif" font-size="14" lengthAdjust="spacing" textLength="167" x="1952.5" y="425.8105">RopaProvider$Companion</text><line style="stroke:#181818;stroke-width:0.5;" x1="1924.5" x2="2121.5" y1="436.0137" y2="436.0137"/><ellipse cx="1934.5" cy="450.8242" fill="none" rx="3" ry="3" style="stroke:#038048;stroke-width:1.0;"/><text fill="#000000" font-family="sans-serif" font-size="14" lengthAdjust="spacing" textLength="51" x="1943.5" y="455.1211">item_list</text><line style="stroke:#181818;stroke-width:0.5;" x1="1924.5" x2="2121.5" y1="462.6348" y2="462.6348"/></g><!--class RopaProvider--><g id="elem_RopaProvider"><rect codeLine="58" fill="#F1F1F1" height="48" id="RopaProvider" rx="2.5" ry="2.5" style="stroke:#181818;stroke-width:0.5;" width="119" x="100.5" y="413.5137"/><ellipse cx="115.5" cy="429.5137" fill="#ADD1B2" rx="11" ry="11" style="stroke:#181818;stroke-width:1.0;"/><path d="M118.2656,425.3887 Q118.4219,425.1699 118.6094,425.0605 Q118.7969,424.9512 119.0156,424.9512 Q119.3906,424.9512 119.625,425.2168 Q119.8594,425.4668 119.8594,426.0762 L119.8594,427.5293 Q119.8594,428.1387 119.625,428.4043 Q119.3906,428.6699 119.0156,428.6699 Q118.6719,428.6699 118.4688,428.4668 Q118.2656,428.2793 118.1563,427.7637 Q118.1094,427.4043 117.9219,427.2168 Q117.5938,426.8418 116.9844,426.623 Q116.375,426.4043 115.75,426.4043 Q114.9844,426.4043 114.3438,426.7324 Q113.7188,427.0605 113.2188,427.8105 Q112.7344,428.5605 112.7344,429.5918 L112.7344,430.6855 Q112.7344,431.9199 113.625,432.748 Q114.5156,433.5605 116.1094,433.5605 Q117.0469,433.5605 117.7031,433.3105 Q118.0938,433.1543 118.5156,432.7168 Q118.7813,432.4512 118.9219,432.373 Q119.0781,432.2949 119.2813,432.2949 Q119.6094,432.2949 119.8594,432.5605 Q120.125,432.8105 120.125,433.1543 Q120.125,433.498 119.7813,433.9043 Q119.2813,434.4824 118.4844,434.8105 Q117.4063,435.2637 116.1094,435.2637 Q114.5938,435.2637 113.3906,434.6387 Q112.4063,434.1387 111.7188,433.0762 Q111.0313,431.998 111.0313,430.7168 L111.0313,429.5605 Q111.0313,428.2324 111.6406,427.0918 Q112.2656,425.9355 113.3594,425.3262 Q114.4531,424.7012 115.6875,424.7012 Q116.4219,424.7012 117.0625,424.873 Q117.7188,425.0293 118.2656,425.3887 Z " fill="#000000"/><text fill="#000000" font-family="sans-serif" font-size="14" lengthAdjust="spacing" textLength="87" x="129.5" y="435.3105">RopaProvider</text><line style="stroke:#181818;stroke-width:0.5;" x1="101.5" x2="218.5" y1="445.5137" y2="445.5137"/><line style="stroke:#181818;stroke-width:0.5;" x1="101.5" x2="218.5" y1="453.5137" y2="453.5137"/></g><!--class ReciclerViewFragment--><g id="elem_ReciclerViewFragment"><rect codeLine="61" fill="#F1F1F1" height="178.3477" id="ReciclerViewFragment" rx="2.5" ry="2.5" style="stroke:#181818;stroke-width:0.5;" width="642" x="2158" y="348.5137"/><ellipse cx="2404.25" cy="364.5137" fill="#ADD1B2" rx="11" ry="11" style="stroke:#181818;stroke-width:1.0;"/><path d="M2407.0156,360.3887 Q2407.1719,360.1699 2407.3594,360.0605 Q2407.5469,359.9512 2407.7656,359.9512 Q2408.1406,359.9512 2408.375,360.2168 Q2408.6094,360.4668 2408.6094,361.0762 L2408.6094,362.5293 Q2408.6094,363.1387 2408.375,363.4043 Q2408.1406,363.6699 2407.7656,363.6699 Q2407.4219,363.6699 2407.2188,363.4668 Q2407.0156,363.2793 2406.9063,362.7637 Q2406.8594,362.4043 2406.6719,362.2168 Q2406.3438,361.8418 2405.7344,361.623 Q2405.125,361.4043 2404.5,361.4043 Q2403.7344,361.4043 2403.0938,361.7324 Q2402.4688,362.0605 2401.9688,362.8105 Q2401.4844,363.5605 2401.4844,364.5918 L2401.4844,365.6855 Q2401.4844,366.9199 2402.375,367.748 Q2403.2656,368.5605 2404.8594,368.5605 Q2405.7969,368.5605 2406.4531,368.3105 Q2406.8438,368.1543 2407.2656,367.7168 Q2407.5313,367.4512 2407.6719,367.373 Q2407.8281,367.2949 2408.0313,367.2949 Q2408.3594,367.2949 2408.6094,367.5605 Q2408.875,367.8105 2408.875,368.1543 Q2408.875,368.498 2408.5313,368.9043 Q2408.0313,369.4824 2407.2344,369.8105 Q2406.1563,370.2637 2404.8594,370.2637 Q2403.3438,370.2637 2402.1406,369.6387 Q2401.1563,369.1387 2400.4688,368.0762 Q2399.7813,366.998 2399.7813,365.7168 L2399.7813,364.5605 Q2399.7813,363.2324 2400.3906,362.0918 Q2401.0156,360.9355 2402.1094,360.3262 Q2403.2031,359.7012 2404.4375,359.7012 Q2405.1719,359.7012 2405.8125,359.873 Q2406.4688,360.0293 2407.0156,360.3887 Z " fill="#000000"/><text fill="#000000" font-family="sans-serif" font-size="14" lengthAdjust="spacing" textLength="141" x="2424.75" y="370.3105">ReciclerViewFragment</text><line style="stroke:#181818;stroke-width:0.5;" x1="2159" x2="2799" y1="380.5137" y2="380.5137"/><rect fill="none" height="6" style="stroke:#C82930;stroke-width:1.0;" width="6" x="2166" y="392.3242"/><text fill="#000000" font-family="sans-serif" font-size="14" lengthAdjust="spacing" textLength="262" x="2178" y="399.6211">FragmentReciclerView2Binding? _binding</text><ellipse cx="2169" cy="413.9453" fill="none" rx="3" ry="3" style="stroke:#038048;stroke-width:1.0;"/><text fill="#000000" font-family="sans-serif" font-size="14" lengthAdjust="spacing" textLength="46" x="2178" y="418.2422">binding</text><line style="stroke:#181818;stroke-width:0.5;" x1="2159" x2="2799" y1="425.7559" y2="425.7559"/><ellipse cx="2169" cy="440.5664" fill="#84BE84" rx="3" ry="3" style="stroke:#038048;stroke-width:1.0;"/><text fill="#000000" font-family="sans-serif" font-size="14" lengthAdjust="spacing" textLength="616" x="2178" y="444.8633">onCreateView(inflater: LayoutInflater, container: ViewGroup?, savedInstanceState: Bundle?): View</text><ellipse cx="2169" cy="459.1875" fill="#84BE84" rx="3" ry="3" style="stroke:#038048;stroke-width:1.0;"/><text fill="#000000" font-family="sans-serif" font-size="14" lengthAdjust="spacing" textLength="362" x="2178" y="463.4844">onViewCreated(view: View, savedInstanceState: Bundle?)</text><ellipse cx="2169" cy="477.8086" fill="#84BE84" rx="3" ry="3" style="stroke:#038048;stroke-width:1.0;"/><text fill="#000000" font-family="sans-serif" font-size="14" lengthAdjust="spacing" textLength="131" x="2178" y="482.1055">iniciarRecyclerView()</text><ellipse cx="2169" cy="496.4297" fill="#84BE84" rx="3" ry="3" style="stroke:#038048;stroke-width:1.0;"/><text fill="#000000" font-family="sans-serif" font-size="14" lengthAdjust="spacing" textLength="187" x="2178" y="500.7266">onItemSelected(datos: Datos)</text><ellipse cx="2169" cy="515.0508" fill="#84BE84" rx="3" ry="3" style="stroke:#038048;stroke-width:1.0;"/><text fill="#000000" font-family="sans-serif" font-size="14" lengthAdjust="spacing" textLength="104" x="2178" y="519.3477">onDestroyView()</text></g><!--class UserInfoFragment--><g id="elem_UserInfoFragment"><rect codeLine="71" fill="#F1F1F1" height="122.4844" id="UserInfoFragment" rx="2.5" ry="2.5" style="stroke:#181818;stroke-width:0.5;" width="642" x="73" y="597.0137"/><ellipse cx="333.25" cy="613.0137" fill="#ADD1B2" rx="11" ry="11" style="stroke:#181818;stroke-width:1.0;"/><path d="M336.0156,608.8887 Q336.1719,608.6699 336.3594,608.5605 Q336.5469,608.4512 336.7656,608.4512 Q337.1406,608.4512 337.375,608.7168 Q337.6094,608.9668 337.6094,609.5762 L337.6094,611.0293 Q337.6094,611.6387 337.375,611.9043 Q337.1406,612.1699 336.7656,612.1699 Q336.4219,612.1699 336.2188,611.9668 Q336.0156,611.7793 335.9063,611.2637 Q335.8594,610.9043 335.6719,610.7168 Q335.3438,610.3418 334.7344,610.123 Q334.125,609.9043 333.5,609.9043 Q332.7344,609.9043 332.0938,610.2324 Q331.4688,610.5605 330.9688,611.3105 Q330.4844,612.0605 330.4844,613.0918 L330.4844,614.1855 Q330.4844,615.4199 331.375,616.248 Q332.2656,617.0605 333.8594,617.0605 Q334.7969,617.0605 335.4531,616.8105 Q335.8438,616.6543 336.2656,616.2168 Q336.5313,615.9512 336.6719,615.873 Q336.8281,615.7949 337.0313,615.7949 Q337.3594,615.7949 337.6094,616.0605 Q337.875,616.3105 337.875,616.6543 Q337.875,616.998 337.5313,617.4043 Q337.0313,617.9824 336.2344,618.3105 Q335.1563,618.7637 333.8594,618.7637 Q332.3438,618.7637 331.1406,618.1387 Q330.1563,617.6387 329.4688,616.5762 Q328.7813,615.498 328.7813,614.2168 L328.7813,613.0605 Q328.7813,611.7324 329.3906,610.5918 Q330.0156,609.4355 331.1094,608.8262 Q332.2031,608.2012 333.4375,608.2012 Q334.1719,608.2012 334.8125,608.373 Q335.4688,608.5293 336.0156,608.8887 Z " fill="#000000"/><text fill="#000000" font-family="sans-serif" font-size="14" lengthAdjust="spacing" textLength="113" x="353.75" y="618.8105">UserInfoFragment</text><line style="stroke:#181818;stroke-width:0.5;" x1="74" x2="714" y1="629.0137" y2="629.0137"/><rect fill="none" height="6" style="stroke:#C82930;stroke-width:1.0;" width="6" x="81" y="640.8242"/><text fill="#000000" font-family="sans-serif" font-size="14" lengthAdjust="spacing" textLength="226" x="93" y="648.1211">FragmentUserInfoBinding? _binding</text><ellipse cx="84" cy="662.4453" fill="none" rx="3" ry="3" style="stroke:#038048;stroke-width:1.0;"/><text fill="#000000" font-family="sans-serif" font-size="14" lengthAdjust="spacing" textLength="46" x="93" y="666.7422">binding</text><line style="stroke:#181818;stroke-width:0.5;" x1="74" x2="714" y1="674.2559" y2="674.2559"/><ellipse cx="84" cy="689.0664" fill="#84BE84" rx="3" ry="3" style="stroke:#038048;stroke-width:1.0;"/><text fill="#000000" font-family="sans-serif" font-size="14" lengthAdjust="spacing" textLength="616" x="93" y="693.3633">onCreateView(inflater: LayoutInflater, container: ViewGroup?, savedInstanceState: Bundle?): View</text><ellipse cx="84" cy="707.6875" fill="#84BE84" rx="3" ry="3" style="stroke:#038048;stroke-width:1.0;"/><text fill="#000000" font-family="sans-serif" font-size="14" lengthAdjust="spacing" textLength="362" x="93" y="711.9844">onViewCreated(view: View, savedInstanceState: Bundle?)</text></g><!--class RopaViewHolder--><g id="elem_RopaViewHolder"><rect codeLine="78" fill="#F1F1F1" height="85.2422" id="RopaViewHolder" rx="2.5" ry="2.5" style="stroke:#181818;stroke-width:0.5;" width="317" x="2835.5" y="395.0137"/><ellipse cx="2937.75" cy="411.0137" fill="#ADD1B2" rx="11" ry="11" style="stroke:#181818;stroke-width:1.0;"/><path d="M2940.5156,406.8887 Q2940.6719,406.6699 2940.8594,406.5605 Q2941.0469,406.4512 2941.2656,406.4512 Q2941.6406,406.4512 2941.875,406.7168 Q2942.1094,406.9668 2942.1094,407.5762 L2942.1094,409.0293 Q2942.1094,409.6387 2941.875,409.9043 Q2941.6406,410.1699 2941.2656,410.1699 Q2940.9219,410.1699 2940.7188,409.9668 Q2940.5156,409.7793 2940.4063,409.2637 Q2940.3594,408.9043 2940.1719,408.7168 Q2939.8438,408.3418 2939.2344,408.123 Q2938.625,407.9043 2938,407.9043 Q2937.2344,407.9043 2936.5938,408.2324 Q2935.9688,408.5605 2935.4688,409.3105 Q2934.9844,410.0605 2934.9844,411.0918 L2934.9844,412.1855 Q2934.9844,413.4199 2935.875,414.248 Q2936.7656,415.0605 2938.3594,415.0605 Q2939.2969,415.0605 2939.9531,414.8105 Q2940.3438,414.6543 2940.7656,414.2168 Q2941.0313,413.9512 2941.1719,413.873 Q2941.3281,413.7949 2941.5313,413.7949 Q2941.8594,413.7949 2942.1094,414.0605 Q2942.375,414.3105 2942.375,414.6543 Q2942.375,414.998 2942.0313,415.4043 Q2941.5313,415.9824 2940.7344,416.3105 Q2939.6563,416.7637 2938.3594,416.7637 Q2936.8438,416.7637 2935.6406,416.1387 Q2934.6563,415.6387 2933.9688,414.5762 Q2933.2813,413.498 2933.2813,412.2168 L2933.2813,411.0605 Q2933.2813,409.7324 2933.8906,408.5918 Q2934.5156,407.4355 2935.6094,406.8262 Q2936.7031,406.2012 2937.9375,406.2012 Q2938.6719,406.2012 2939.3125,406.373 Q2939.9688,406.5293 2940.5156,406.8887 Z " fill="#000000"/><text fill="#000000" font-family="sans-serif" font-size="14" lengthAdjust="spacing" textLength="104" x="2958.25" y="416.8105">RopaViewHolder</text><line style="stroke:#181818;stroke-width:0.5;" x1="2836.5" x2="3151.5" y1="427.0137" y2="427.0137"/><ellipse cx="2846.5" cy="441.8242" fill="none" rx="3" ry="3" style="stroke:#038048;stroke-width:1.0;"/><text fill="#000000" font-family="sans-serif" font-size="14" lengthAdjust="spacing" textLength="46" x="2855.5" y="446.1211">binding</text><line style="stroke:#181818;stroke-width:0.5;" x1="2836.5" x2="3151.5" y1="453.6348" y2="453.6348"/><ellipse cx="2846.5" cy="468.4453" fill="#84BE84" rx="3" ry="3" style="stroke:#038048;stroke-width:1.0;"/><text fill="#000000" font-family="sans-serif" font-size="14" lengthAdjust="spacing" textLength="291" x="2855.5" y="472.7422">render(datos: Datos, callback: (Datos) -&gt; Unit)</text></g><!--class DetailItemFragment--><g id="elem_DetailItemFragment"><rect codeLine="83" fill="#F1F1F1" height="141.1055" id="DetailItemFragment" rx="2.5" ry="2.5" style="stroke:#181818;stroke-width:0.5;" width="642" x="750" y="587.5137"/><ellipse cx="1005.25" cy="603.5137" fill="#ADD1B2" rx="11" ry="11" style="stroke:#181818;stroke-width:1.0;"/><path d="M1008.0156,599.3887 Q1008.1719,599.1699 1008.3594,599.0605 Q1008.5469,598.9512 1008.7656,598.9512 Q1009.1406,598.9512 1009.375,599.2168 Q1009.6094,599.4668 1009.6094,600.0762 L1009.6094,601.5293 Q1009.6094,602.1387 1009.375,602.4043 Q1009.1406,602.6699 1008.7656,602.6699 Q1008.4219,602.6699 1008.2188,602.4668 Q1008.0156,602.2793 1007.9063,601.7637 Q1007.8594,601.4043 1007.6719,601.2168 Q1007.3438,600.8418 1006.7344,600.623 Q1006.125,600.4043 1005.5,600.4043 Q1004.7344,600.4043 1004.0938,600.7324 Q1003.4688,601.0605 1002.9688,601.8105 Q1002.4844,602.5605 1002.4844,603.5918 L1002.4844,604.6855 Q1002.4844,605.9199 1003.375,606.748 Q1004.2656,607.5605 1005.8594,607.5605 Q1006.7969,607.5605 1007.4531,607.3105 Q1007.8438,607.1543 1008.2656,606.7168 Q1008.5313,606.4512 1008.6719,606.373 Q1008.8281,606.2949 1009.0313,606.2949 Q1009.3594,606.2949 1009.6094,606.5605 Q1009.875,606.8105 1009.875,607.1543 Q1009.875,607.498 1009.5313,607.9043 Q1009.0313,608.4824 1008.2344,608.8105 Q1007.1563,609.2637 1005.8594,609.2637 Q1004.3438,609.2637 1003.1406,608.6387 Q1002.1563,608.1387 1001.4688,607.0762 Q1000.7813,605.998 1000.7813,604.7168 L1000.7813,603.5605 Q1000.7813,602.2324 1001.3906,601.0918 Q1002.0156,599.9355 1003.1094,599.3262 Q1004.2031,598.7012 1005.4375,598.7012 Q1006.1719,598.7012 1006.8125,598.873 Q1007.4688,599.0293 1008.0156,599.3887 Z " fill="#000000"/><text fill="#000000" font-family="sans-serif" font-size="14" lengthAdjust="spacing" textLength="123" x="1025.75" y="609.3105">DetailItemFragment</text><line style="stroke:#181818;stroke-width:0.5;" x1="751" x2="1391" y1="619.5137" y2="619.5137"/><rect fill="none" height="6" style="stroke:#C82930;stroke-width:1.0;" width="6" x="758" y="631.3242"/><text fill="#000000" font-family="sans-serif" font-size="14" lengthAdjust="spacing" textLength="236" x="770" y="638.6211">FragmentDetailItemBinding? _binding</text><ellipse cx="761" cy="652.9453" fill="none" rx="3" ry="3" style="stroke:#038048;stroke-width:1.0;"/><text fill="#000000" font-family="sans-serif" font-size="14" lengthAdjust="spacing" textLength="46" x="770" y="657.2422">binding</text><line style="stroke:#181818;stroke-width:0.5;" x1="751" x2="1391" y1="664.7559" y2="664.7559"/><ellipse cx="761" cy="679.5664" fill="#84BE84" rx="3" ry="3" style="stroke:#038048;stroke-width:1.0;"/><text fill="#000000" font-family="sans-serif" font-size="14" lengthAdjust="spacing" textLength="616" x="770" y="683.8633">onCreateView(inflater: LayoutInflater, container: ViewGroup?, savedInstanceState: Bundle?): View</text><ellipse cx="761" cy="698.1875" fill="#84BE84" rx="3" ry="3" style="stroke:#038048;stroke-width:1.0;"/><text fill="#000000" font-family="sans-serif" font-size="14" lengthAdjust="spacing" textLength="362" x="770" y="702.4844">onViewCreated(view: View, savedInstanceState: Bundle?)</text><ellipse cx="761" cy="716.8086" fill="#84BE84" rx="3" ry="3" style="stroke:#038048;stroke-width:1.0;"/><text fill="#000000" font-family="sans-serif" font-size="14" lengthAdjust="spacing" textLength="104" x="770" y="721.1055">onDestroyView()</text></g><!--class ViewPagerAdapter--><g id="elem_ViewPagerAdapter"><rect codeLine="91" fill="#F1F1F1" height="85.2422" id="ViewPagerAdapter" rx="2.5" ry="2.5" style="stroke:#181818;stroke-width:0.5;" width="278" x="1427" y="615.5137"/><ellipse cx="1503.25" cy="631.5137" fill="#ADD1B2" rx="11" ry="11" style="stroke:#181818;stroke-width:1.0;"/><path d="M1506.0156,627.3887 Q1506.1719,627.1699 1506.3594,627.0605 Q1506.5469,626.9512 1506.7656,626.9512 Q1507.1406,626.9512 1507.375,627.2168 Q1507.6094,627.4668 1507.6094,628.0762 L1507.6094,629.5293 Q1507.6094,630.1387 1507.375,630.4043 Q1507.1406,630.6699 1506.7656,630.6699 Q1506.4219,630.6699 1506.2188,630.4668 Q1506.0156,630.2793 1505.9063,629.7637 Q1505.8594,629.4043 1505.6719,629.2168 Q1505.3438,628.8418 1504.7344,628.623 Q1504.125,628.4043 1503.5,628.4043 Q1502.7344,628.4043 1502.0938,628.7324 Q1501.4688,629.0605 1500.9688,629.8105 Q1500.4844,630.5605 1500.4844,631.5918 L1500.4844,632.6855 Q1500.4844,633.9199 1501.375,634.748 Q1502.2656,635.5605 1503.8594,635.5605 Q1504.7969,635.5605 1505.4531,635.3105 Q1505.8438,635.1543 1506.2656,634.7168 Q1506.5313,634.4512 1506.6719,634.373 Q1506.8281,634.2949 1507.0313,634.2949 Q1507.3594,634.2949 1507.6094,634.5605 Q1507.875,634.8105 1507.875,635.1543 Q1507.875,635.498 1507.5313,635.9043 Q1507.0313,636.4824 1506.2344,636.8105 Q1505.1563,637.2637 1503.8594,637.2637 Q1502.3438,637.2637 1501.1406,636.6387 Q1500.1563,636.1387 1499.4688,635.0762 Q1498.7813,633.998 1498.7813,632.7168 L1498.7813,631.5605 Q1498.7813,630.2324 1499.3906,629.0918 Q1500.0156,627.9355 1501.1094,627.3262 Q1502.2031,626.7012 1503.4375,626.7012 Q1504.1719,626.7012 1504.8125,626.873 Q1505.4688,627.0293 1506.0156,627.3887 Z " fill="#000000"/><text fill="#000000" font-family="sans-serif" font-size="14" lengthAdjust="spacing" textLength="117" x="1523.75" y="637.3105">ViewPagerAdapter</text><line style="stroke:#181818;stroke-width:0.5;" x1="1428" x2="1704" y1="647.5137" y2="647.5137"/><line style="stroke:#181818;stroke-width:0.5;" x1="1428" x2="1704" y1="655.5137" y2="655.5137"/><ellipse cx="1438" cy="670.3242" fill="#84BE84" rx="3" ry="3" style="stroke:#038048;stroke-width:1.0;"/><text fill="#000000" font-family="sans-serif" font-size="14" lengthAdjust="spacing" textLength="117" x="1447" y="674.6211">getItemCount(): Int</text><ellipse cx="1438" cy="688.9453" fill="#84BE84" rx="3" ry="3" style="stroke:#038048;stroke-width:1.0;"/><text fill="#000000" font-family="sans-serif" font-size="14" lengthAdjust="spacing" textLength="252" x="1447" y="693.2422">createFragment(position: Int): Fragment</text></g><!--class MainFragment--><g id="elem_MainFragment"><rect codeLine="96" fill="#F1F1F1" height="122.4844" id="MainFragment" rx="2.5" ry="2.5" style="stroke:#181818;stroke-width:0.5;" width="279" x="1740.5" y="597.0137"/><ellipse cx="1830.25" cy="613.0137" fill="#ADD1B2" rx="11" ry="11" style="stroke:#181818;stroke-width:1.0;"/><path d="M1833.0156,608.8887 Q1833.1719,608.6699 1833.3594,608.5605 Q1833.5469,608.4512 1833.7656,608.4512 Q1834.1406,608.4512 1834.375,608.7168 Q1834.6094,608.9668 1834.6094,609.5762 L1834.6094,611.0293 Q1834.6094,611.6387 1834.375,611.9043 Q1834.1406,612.1699 1833.7656,612.1699 Q1833.4219,612.1699 1833.2188,611.9668 Q1833.0156,611.7793 1832.9063,611.2637 Q1832.8594,610.9043 1832.6719,610.7168 Q1832.3438,610.3418 1831.7344,610.123 Q1831.125,609.9043 1830.5,609.9043 Q1829.7344,609.9043 1829.0938,610.2324 Q1828.4688,610.5605 1827.9688,611.3105 Q1827.4844,612.0605 1827.4844,613.0918 L1827.4844,614.1855 Q1827.4844,615.4199 1828.375,616.248 Q1829.2656,617.0605 1830.8594,617.0605 Q1831.7969,617.0605 1832.4531,616.8105 Q1832.8438,616.6543 1833.2656,616.2168 Q1833.5313,615.9512 1833.6719,615.873 Q1833.8281,615.7949 1834.0313,615.7949 Q1834.3594,615.7949 1834.6094,616.0605 Q1834.875,616.3105 1834.875,616.6543 Q1834.875,616.998 1834.5313,617.4043 Q1834.0313,617.9824 1833.2344,618.3105 Q1832.1563,618.7637 1830.8594,618.7637 Q1829.3438,618.7637 1828.1406,618.1387 Q1827.1563,617.6387 1826.4688,616.5762 Q1825.7813,615.498 1825.7813,614.2168 L1825.7813,613.0605 Q1825.7813,611.7324 1826.3906,610.5918 Q1827.0156,609.4355 1828.1094,608.8262 Q1829.2031,608.2012 1830.4375,608.2012 Q1831.1719,608.2012 1831.8125,608.373 Q1832.4688,608.5293 1833.0156,608.8887 Z " fill="#000000"/><text fill="#000000" font-family="sans-serif" font-size="14" lengthAdjust="spacing" textLength="91" x="1850.75" y="618.8105">MainFragment</text><line style="stroke:#181818;stroke-width:0.5;" x1="1741.5" x2="2018.5" y1="629.0137" y2="629.0137"/><rect fill="none" height="6" style="stroke:#C82930;stroke-width:1.0;" width="6" x="1748.5" y="640.8242"/><text fill="#000000" font-family="sans-serif" font-size="14" lengthAdjust="spacing" textLength="204" x="1760.5" y="648.1211">FragmentMainBinding? _binding</text><ellipse cx="1751.5" cy="662.4453" fill="none" rx="3" ry="3" style="stroke:#038048;stroke-width:1.0;"/><text fill="#000000" font-family="sans-serif" font-size="14" lengthAdjust="spacing" textLength="46" x="1760.5" y="666.7422">binding</text><line style="stroke:#181818;stroke-width:0.5;" x1="1741.5" x2="2018.5" y1="674.2559" y2="674.2559"/><ellipse cx="1751.5" cy="689.0664" fill="#84BE84" rx="3" ry="3" style="stroke:#038048;stroke-width:1.0;"/><text fill="#000000" font-family="sans-serif" font-size="14" lengthAdjust="spacing" textLength="253" x="1760.5" y="693.3633">onCreate(savedInstanceState: Bundle?)</text><ellipse cx="1751.5" cy="707.6875" fill="#84BE84" rx="3" ry="3" style="stroke:#038048;stroke-width:1.0;"/><text fill="#000000" font-family="sans-serif" font-size="14" lengthAdjust="spacing" textLength="75" x="1760.5" y="711.9844">onDestroy()</text></g><!--class LoginFragment--><g id="elem_LoginFragment"><rect codeLine="103" fill="#F1F1F1" height="103.8633" id="LoginFragment" rx="2.5" ry="2.5" style="stroke:#181818;stroke-width:0.5;" width="642" x="2055" y="606.0137"/><ellipse cx="2323.75" cy="622.0137" fill="#ADD1B2" rx="11" ry="11" style="stroke:#181818;stroke-width:1.0;"/><path d="M2326.5156,617.8887 Q2326.6719,617.6699 2326.8594,617.5605 Q2327.0469,617.4512 2327.2656,617.4512 Q2327.6406,617.4512 2327.875,617.7168 Q2328.1094,617.9668 2328.1094,618.5762 L2328.1094,620.0293 Q2328.1094,620.6387 2327.875,620.9043 Q2327.6406,621.1699 2327.2656,621.1699 Q2326.9219,621.1699 2326.7188,620.9668 Q2326.5156,620.7793 2326.4063,620.2637 Q2326.3594,619.9043 2326.1719,619.7168 Q2325.8438,619.3418 2325.2344,619.123 Q2324.625,618.9043 2324,618.9043 Q2323.2344,618.9043 2322.5938,619.2324 Q2321.9688,619.5605 2321.4688,620.3105 Q2320.9844,621.0605 2320.9844,622.0918 L2320.9844,623.1855 Q2320.9844,624.4199 2321.875,625.248 Q2322.7656,626.0605 2324.3594,626.0605 Q2325.2969,626.0605 2325.9531,625.8105 Q2326.3438,625.6543 2326.7656,625.2168 Q2327.0313,624.9512 2327.1719,624.873 Q2327.3281,624.7949 2327.5313,624.7949 Q2327.8594,624.7949 2328.1094,625.0605 Q2328.375,625.3105 2328.375,625.6543 Q2328.375,625.998 2328.0313,626.4043 Q2327.5313,626.9824 2326.7344,627.3105 Q2325.6563,627.7637 2324.3594,627.7637 Q2322.8438,627.7637 2321.6406,627.1387 Q2320.6563,626.6387 2319.9688,625.5762 Q2319.2813,624.498 2319.2813,623.2168 L2319.2813,622.0605 Q2319.2813,620.7324 2319.8906,619.5918 Q2320.5156,618.4355 2321.6094,617.8262 Q2322.7031,617.2012 2323.9375,617.2012 Q2324.6719,617.2012 2325.3125,617.373 Q2325.9688,617.5293 2326.5156,617.8887 Z " fill="#000000"/><text fill="#000000" font-family="sans-serif" font-size="14" lengthAdjust="spacing" textLength="96" x="2344.25" y="627.8105">LoginFragment</text><line style="stroke:#181818;stroke-width:0.5;" x1="2056" x2="2696" y1="638.0137" y2="638.0137"/><rect fill="none" height="6" style="stroke:#C82930;stroke-width:1.0;" width="6" x="2063" y="649.8242"/><text fill="#000000" font-family="sans-serif" font-size="14" lengthAdjust="spacing" textLength="209" x="2075" y="657.1211">FragmentLoginBinding? _binding</text><ellipse cx="2066" cy="671.4453" fill="none" rx="3" ry="3" style="stroke:#038048;stroke-width:1.0;"/><text fill="#000000" font-family="sans-serif" font-size="14" lengthAdjust="spacing" textLength="46" x="2075" y="675.7422">binding</text><line style="stroke:#181818;stroke-width:0.5;" x1="2056" x2="2696" y1="683.2559" y2="683.2559"/><ellipse cx="2066" cy="698.0664" fill="#84BE84" rx="3" ry="3" style="stroke:#038048;stroke-width:1.0;"/><text fill="#000000" font-family="sans-serif" font-size="14" lengthAdjust="spacing" textLength="616" x="2075" y="702.3633">onCreateView(inflater: LayoutInflater, container: ViewGroup?, savedInstanceState: Bundle?): View</text></g><!--class MenuFragment--><g id="elem_MenuFragment"><rect codeLine="109" fill="#F1F1F1" height="103.8633" id="MenuFragment" rx="2.5" ry="2.5" style="stroke:#181818;stroke-width:0.5;" width="642" x="73" y="808.0137"/><ellipse cx="341.75" cy="824.0137" fill="#ADD1B2" rx="11" ry="11" style="stroke:#181818;stroke-width:1.0;"/><path d="M344.5156,819.8887 Q344.6719,819.6699 344.8594,819.5605 Q345.0469,819.4512 345.2656,819.4512 Q345.6406,819.4512 345.875,819.7168 Q346.1094,819.9668 346.1094,820.5762 L346.1094,822.0293 Q346.1094,822.6387 345.875,822.9043 Q345.6406,823.1699 345.2656,823.1699 Q344.9219,823.1699 344.7188,822.9668 Q344.5156,822.7793 344.4063,822.2637 Q344.3594,821.9043 344.1719,821.7168 Q343.8438,821.3418 343.2344,821.123 Q342.625,820.9043 342,820.9043 Q341.2344,820.9043 340.5938,821.2324 Q339.9688,821.5605 339.4688,822.3105 Q338.9844,823.0605 338.9844,824.0918 L338.9844,825.1855 Q338.9844,826.4199 339.875,827.248 Q340.7656,828.0605 342.3594,828.0605 Q343.2969,828.0605 343.9531,827.8105 Q344.3438,827.6543 344.7656,827.2168 Q345.0313,826.9512 345.1719,826.873 Q345.3281,826.7949 345.5313,826.7949 Q345.8594,826.7949 346.1094,827.0605 Q346.375,827.3105 346.375,827.6543 Q346.375,827.998 346.0313,828.4043 Q345.5313,828.9824 344.7344,829.3105 Q343.6563,829.7637 342.3594,829.7637 Q340.8438,829.7637 339.6406,829.1387 Q338.6563,828.6387 337.9688,827.5762 Q337.2813,826.498 337.2813,825.2168 L337.2813,824.0605 Q337.2813,822.7324 337.8906,821.5918 Q338.5156,820.4355 339.6094,819.8262 Q340.7031,819.2012 341.9375,819.2012 Q342.6719,819.2012 343.3125,819.373 Q343.9688,819.5293 344.5156,819.8887 Z " fill="#000000"/><text fill="#000000" font-family="sans-serif" font-size="14" lengthAdjust="spacing" textLength="96" x="362.25" y="829.8105">MenuFragment</text><line style="stroke:#181818;stroke-width:0.5;" x1="74" x2="714" y1="840.0137" y2="840.0137"/><rect fill="none" height="6" style="stroke:#C82930;stroke-width:1.0;" width="6" x="81" y="851.8242"/><text fill="#000000" font-family="sans-serif" font-size="14" lengthAdjust="spacing" textLength="209" x="93" y="859.1211">FragmentMenuBinding? _binding</text><ellipse cx="84" cy="873.4453" fill="none" rx="3" ry="3" style="stroke:#038048;stroke-width:1.0;"/><text fill="#000000" font-family="sans-serif" font-size="14" lengthAdjust="spacing" textLength="46" x="93" y="877.7422">binding</text><line style="stroke:#181818;stroke-width:0.5;" x1="74" x2="714" y1="885.2559" y2="885.2559"/><ellipse cx="84" cy="900.0664" fill="#84BE84" rx="3" ry="3" style="stroke:#038048;stroke-width:1.0;"/><text fill="#000000" font-family="sans-serif" font-size="14" lengthAdjust="spacing" textLength="616" x="93" y="904.3633">onCreateView(inflater: LayoutInflater, container: ViewGroup?, savedInstanceState: Bundle?): View</text></g><!--class CreditFragment$Companion--><g id="elem_CreditFragment$Companion"><rect codeLine="115" fill="#F1F1F1" height="66.6211" id="CreditFragment$Companion" rx="2.5" ry="2.5" style="stroke:#181818;stroke-width:0.5;" width="211" x="750.5" y="826.5137"/><ellipse cx="765.5" cy="842.5137" fill="#ADD1B2" rx="11" ry="11" style="stroke:#181818;stroke-width:1.0;"/><path d="M768.2656,838.3887 Q768.4219,838.1699 768.6094,838.0605 Q768.7969,837.9512 769.0156,837.9512 Q769.3906,837.9512 769.625,838.2168 Q769.8594,838.4668 769.8594,839.0762 L769.8594,840.5293 Q769.8594,841.1387 769.625,841.4043 Q769.3906,841.6699 769.0156,841.6699 Q768.6719,841.6699 768.4688,841.4668 Q768.2656,841.2793 768.1563,840.7637 Q768.1094,840.4043 767.9219,840.2168 Q767.5938,839.8418 766.9844,839.623 Q766.375,839.4043 765.75,839.4043 Q764.9844,839.4043 764.3438,839.7324 Q763.7188,840.0605 763.2188,840.8105 Q762.7344,841.5605 762.7344,842.5918 L762.7344,843.6855 Q762.7344,844.9199 763.625,845.748 Q764.5156,846.5605 766.1094,846.5605 Q767.0469,846.5605 767.7031,846.3105 Q768.0938,846.1543 768.5156,845.7168 Q768.7813,845.4512 768.9219,845.373 Q769.0781,845.2949 769.2813,845.2949 Q769.6094,845.2949 769.8594,845.5605 Q770.125,845.8105 770.125,846.1543 Q770.125,846.498 769.7813,846.9043 Q769.2813,847.4824 768.4844,847.8105 Q767.4063,848.2637 766.1094,848.2637 Q764.5938,848.2637 763.3906,847.6387 Q762.4063,847.1387 761.7188,846.0762 Q761.0313,844.998 761.0313,843.7168 L761.0313,842.5605 Q761.0313,841.2324 761.6406,840.0918 Q762.2656,838.9355 763.3594,838.3262 Q764.4531,837.7012 765.6875,837.7012 Q766.4219,837.7012 767.0625,837.873 Q767.7188,838.0293 768.2656,838.3887 Z " fill="#000000"/><text fill="#000000" font-family="sans-serif" font-size="14" lengthAdjust="spacing" textLength="179" x="779.5" y="848.3105">CreditFragment$Companion</text><line style="stroke:#181818;stroke-width:0.5;" x1="751.5" x2="960.5" y1="858.5137" y2="858.5137"/><line style="stroke:#181818;stroke-width:0.5;" x1="751.5" x2="960.5" y1="866.5137" y2="866.5137"/><ellipse cx="761.5" cy="881.3242" fill="#84BE84" rx="3" ry="3" style="stroke:#038048;stroke-width:1.0;"/><text fill="#000000" font-family="sans-serif" font-size="14" lengthAdjust="spacing" textLength="88" x="770.5" y="885.6211">newInstance()</text></g><!--class CreditFragment--><g id="elem_CreditFragment"><rect codeLine="119" fill="#F1F1F1" height="141.1055" id="CreditFragment" rx="2.5" ry="2.5" style="stroke:#181818;stroke-width:0.5;" width="642" x="997" y="789.5137"/><ellipse cx="1264.25" cy="805.5137" fill="#ADD1B2" rx="11" ry="11" style="stroke:#181818;stroke-width:1.0;"/><path d="M1267.0156,801.3887 Q1267.1719,801.1699 1267.3594,801.0605 Q1267.5469,800.9512 1267.7656,800.9512 Q1268.1406,800.9512 1268.375,801.2168 Q1268.6094,801.4668 1268.6094,802.0762 L1268.6094,803.5293 Q1268.6094,804.1387 1268.375,804.4043 Q1268.1406,804.6699 1267.7656,804.6699 Q1267.4219,804.6699 1267.2188,804.4668 Q1267.0156,804.2793 1266.9063,803.7637 Q1266.8594,803.4043 1266.6719,803.2168 Q1266.3438,802.8418 1265.7344,802.623 Q1265.125,802.4043 1264.5,802.4043 Q1263.7344,802.4043 1263.0938,802.7324 Q1262.4688,803.0605 1261.9688,803.8105 Q1261.4844,804.5605 1261.4844,805.5918 L1261.4844,806.6855 Q1261.4844,807.9199 1262.375,808.748 Q1263.2656,809.5605 1264.8594,809.5605 Q1265.7969,809.5605 1266.4531,809.3105 Q1266.8438,809.1543 1267.2656,808.7168 Q1267.5313,808.4512 1267.6719,808.373 Q1267.8281,808.2949 1268.0313,808.2949 Q1268.3594,808.2949 1268.6094,808.5605 Q1268.875,808.8105 1268.875,809.1543 Q1268.875,809.498 1268.5313,809.9043 Q1268.0313,810.4824 1267.2344,810.8105 Q1266.1563,811.2637 1264.8594,811.2637 Q1263.3438,811.2637 1262.1406,810.6387 Q1261.1563,810.1387 1260.4688,809.0762 Q1259.7813,807.998 1259.7813,806.7168 L1259.7813,805.5605 Q1259.7813,804.2324 1260.3906,803.0918 Q1261.0156,801.9355 1262.1094,801.3262 Q1263.2031,800.7012 1264.4375,800.7012 Q1265.1719,800.7012 1265.8125,800.873 Q1266.4688,801.0293 1267.0156,801.3887 Z " fill="#000000"/><text fill="#000000" font-family="sans-serif" font-size="14" lengthAdjust="spacing" textLength="99" x="1284.75" y="811.3105">CreditFragment</text><line style="stroke:#181818;stroke-width:0.5;" x1="998" x2="1638" y1="821.5137" y2="821.5137"/><rect fill="none" height="6" style="stroke:#C82930;stroke-width:1.0;" width="6" x="1005" y="833.3242"/><text fill="#000000" font-family="sans-serif" font-size="14" lengthAdjust="spacing" textLength="212" x="1017" y="840.6211">FragmentCreditBinding? _binding</text><ellipse cx="1008" cy="854.9453" fill="none" rx="3" ry="3" style="stroke:#038048;stroke-width:1.0;"/><text fill="#000000" font-family="sans-serif" font-size="14" lengthAdjust="spacing" textLength="46" x="1017" y="859.2422">binding</text><line style="stroke:#181818;stroke-width:0.5;" x1="998" x2="1638" y1="866.7559" y2="866.7559"/><ellipse cx="1008" cy="881.5664" fill="#84BE84" rx="3" ry="3" style="stroke:#038048;stroke-width:1.0;"/><text fill="#000000" font-family="sans-serif" font-size="14" lengthAdjust="spacing" textLength="616" x="1017" y="885.8633">onCreateView(inflater: LayoutInflater, container: ViewGroup?, savedInstanceState: Bundle?): View</text><ellipse cx="1008" cy="900.1875" fill="#84BE84" rx="3" ry="3" style="stroke:#038048;stroke-width:1.0;"/><text fill="#000000" font-family="sans-serif" font-size="14" lengthAdjust="spacing" textLength="362" x="1017" y="904.4844">onViewCreated(view: View, savedInstanceState: Bundle?)</text><ellipse cx="1008" cy="918.8086" fill="#84BE84" rx="3" ry="3" style="stroke:#038048;stroke-width:1.0;"/><text fill="#000000" font-family="sans-serif" font-size="14" lengthAdjust="spacing" textLength="104" x="1017" y="923.1055">onDestroyView()</text></g><!--class RopaAdapter--><g id="elem_RopaAdapter"><rect codeLine="127" fill="#F1F1F1" height="103.8633" id="RopaAdapter" rx="2.5" ry="2.5" style="stroke:#181818;stroke-width:0.5;" width="481" x="898.5" y="125.0137"/><ellipse cx="1092.75" cy="141.0137" fill="#ADD1B2" rx="11" ry="11" style="stroke:#181818;stroke-width:1.0;"/><path d="M1095.5156,136.8887 Q1095.6719,136.6699 1095.8594,136.5605 Q1096.0469,136.4512 1096.2656,136.4512 Q1096.6406,136.4512 1096.875,136.7168 Q1097.1094,136.9668 1097.1094,137.5762 L1097.1094,139.0293 Q1097.1094,139.6387 1096.875,139.9043 Q1096.6406,140.1699 1096.2656,140.1699 Q1095.9219,140.1699 1095.7188,139.9668 Q1095.5156,139.7793 1095.4063,139.2637 Q1095.3594,138.9043 1095.1719,138.7168 Q1094.8438,138.3418 1094.2344,138.123 Q1093.625,137.9043 1093,137.9043 Q1092.2344,137.9043 1091.5938,138.2324 Q1090.9688,138.5605 1090.4688,139.3105 Q1089.9844,140.0605 1089.9844,141.0918 L1089.9844,142.1855 Q1089.9844,143.4199 1090.875,144.248 Q1091.7656,145.0605 1093.3594,145.0605 Q1094.2969,145.0605 1094.9531,144.8105 Q1095.3438,144.6543 1095.7656,144.2168 Q1096.0313,143.9512 1096.1719,143.873 Q1096.3281,143.7949 1096.5313,143.7949 Q1096.8594,143.7949 1097.1094,144.0605 Q1097.375,144.3105 1097.375,144.6543 Q1097.375,144.998 1097.0313,145.4043 Q1096.5313,145.9824 1095.7344,146.3105 Q1094.6563,146.7637 1093.3594,146.7637 Q1091.8438,146.7637 1090.6406,146.1387 Q1089.6563,145.6387 1088.9688,144.5762 Q1088.2813,143.498 1088.2813,142.2168 L1088.2813,141.0605 Q1088.2813,139.7324 1088.8906,138.5918 Q1089.5156,137.4355 1090.6094,136.8262 Q1091.7031,136.2012 1092.9375,136.2012 Q1093.6719,136.2012 1094.3125,136.373 Q1094.9688,136.5293 1095.5156,136.8887 Z " fill="#000000"/><text fill="#000000" font-family="sans-serif" font-size="14" lengthAdjust="spacing" textLength="84" x="1113.25" y="146.8105">RopaAdapter</text><line style="stroke:#181818;stroke-width:0.5;" x1="899.5" x2="1378.5" y1="157.0137" y2="157.0137"/><line style="stroke:#181818;stroke-width:0.5;" x1="899.5" x2="1378.5" y1="165.0137" y2="165.0137"/><ellipse cx="909.5" cy="179.8242" fill="#84BE84" rx="3" ry="3" style="stroke:#038048;stroke-width:1.0;"/><text fill="#000000" font-family="sans-serif" font-size="14" lengthAdjust="spacing" textLength="455" x="918.5" y="184.1211">RopaViewHolder onCreateViewHolder(parent: ViewGroup, viewType: Int)</text><ellipse cx="909.5" cy="198.4453" fill="#84BE84" rx="3" ry="3" style="stroke:#038048;stroke-width:1.0;"/><text fill="#000000" font-family="sans-serif" font-size="14" lengthAdjust="spacing" textLength="117" x="918.5" y="202.7422">getItemCount(): Int</text><ellipse cx="909.5" cy="217.0664" fill="#84BE84" rx="3" ry="3" style="stroke:#038048;stroke-width:1.0;"/><text fill="#000000" font-family="sans-serif" font-size="14" lengthAdjust="spacing" textLength="360" x="918.5" y="221.3633">onBindViewHolder(holder: JuegoViewHolder, position: Int)</text></g><!--class FavItemListFragment$Companion--><g id="elem_FavItemListFragment$Companion"><rect codeLine="133" fill="#F1F1F1" height="66.6211" id="FavItemListFragment$Companion" rx="2.5" ry="2.5" style="stroke:#181818;stroke-width:0.5;" width="308" x="1674" y="826.5137"/><ellipse cx="1717.35" cy="842.5137" fill="#ADD1B2" rx="11" ry="11" style="stroke:#181818;stroke-width:1.0;"/><path d="M1720.1156,838.3887 Q1720.2719,838.1699 1720.4594,838.0605 Q1720.6469,837.9512 1720.8656,837.9512 Q1721.2406,837.9512 1721.475,838.2168 Q1721.7094,838.4668 1721.7094,839.0762 L1721.7094,840.5293 Q1721.7094,841.1387 1721.475,841.4043 Q1721.2406,841.6699 1720.8656,841.6699 Q1720.5219,841.6699 1720.3188,841.4668 Q1720.1156,841.2793 1720.0063,840.7637 Q1719.9594,840.4043 1719.7719,840.2168 Q1719.4438,839.8418 1718.8344,839.623 Q1718.225,839.4043 1717.6,839.4043 Q1716.8344,839.4043 1716.1938,839.7324 Q1715.5688,840.0605 1715.0688,840.8105 Q1714.5844,841.5605 1714.5844,842.5918 L1714.5844,843.6855 Q1714.5844,844.9199 1715.475,845.748 Q1716.3656,846.5605 1717.9594,846.5605 Q1718.8969,846.5605 1719.5531,846.3105 Q1719.9438,846.1543 1720.3656,845.7168 Q1720.6313,845.4512 1720.7719,845.373 Q1720.9281,845.2949 1721.1313,845.2949 Q1721.4594,845.2949 1721.7094,845.5605 Q1721.975,845.8105 1721.975,846.1543 Q1721.975,846.498 1721.6313,846.9043 Q1721.1313,847.4824 1720.3344,847.8105 Q1719.2563,848.2637 1717.9594,848.2637 Q1716.4438,848.2637 1715.2406,847.6387 Q1714.2563,847.1387 1713.5688,846.0762 Q1712.8813,844.998 1712.8813,843.7168 L1712.8813,842.5605 Q1712.8813,841.2324 1713.4906,840.0918 Q1714.1156,838.9355 1715.2094,838.3262 Q1716.3031,837.7012 1717.5375,837.7012 Q1718.2719,837.7012 1718.9125,837.873 Q1719.5688,838.0293 1720.1156,838.3887 Z " fill="#000000"/><text fill="#000000" font-family="sans-serif" font-size="14" lengthAdjust="spacing" textLength="213" x="1737.65" y="848.3105">FavItemListFragment$Companion</text><line style="stroke:#181818;stroke-width:0.5;" x1="1675" x2="1981" y1="858.5137" y2="858.5137"/><line style="stroke:#181818;stroke-width:0.5;" x1="1675" x2="1981" y1="866.5137" y2="866.5137"/><ellipse cx="1685" cy="881.3242" fill="#84BE84" rx="3" ry="3" style="stroke:#038048;stroke-width:1.0;"/><text fill="#000000" font-family="sans-serif" font-size="14" lengthAdjust="spacing" textLength="282" x="1694" y="885.6211">newInstance(param1: String, param2: String)</text></g><!--class FavItemListFragment--><g id="elem_FavItemListFragment"><rect codeLine="137" fill="#F1F1F1" height="141.1055" id="FavItemListFragment" rx="2.5" ry="2.5" style="stroke:#181818;stroke-width:0.5;" width="642" x="46" y="106.5137"/><ellipse cx="296.25" cy="122.5137" fill="#ADD1B2" rx="11" ry="11" style="stroke:#181818;stroke-width:1.0;"/><path d="M299.0156,118.3887 Q299.1719,118.1699 299.3594,118.0605 Q299.5469,117.9512 299.7656,117.9512 Q300.1406,117.9512 300.375,118.2168 Q300.6094,118.4668 300.6094,119.0762 L300.6094,120.5293 Q300.6094,121.1387 300.375,121.4043 Q300.1406,121.6699 299.7656,121.6699 Q299.4219,121.6699 299.2188,121.4668 Q299.0156,121.2793 298.9063,120.7637 Q298.8594,120.4043 298.6719,120.2168 Q298.3438,119.8418 297.7344,119.623 Q297.125,119.4043 296.5,119.4043 Q295.7344,119.4043 295.0938,119.7324 Q294.4688,120.0605 293.9688,120.8105 Q293.4844,121.5605 293.4844,122.5918 L293.4844,123.6855 Q293.4844,124.9199 294.375,125.748 Q295.2656,126.5605 296.8594,126.5605 Q297.7969,126.5605 298.4531,126.3105 Q298.8438,126.1543 299.2656,125.7168 Q299.5313,125.4512 299.6719,125.373 Q299.8281,125.2949 300.0313,125.2949 Q300.3594,125.2949 300.6094,125.5605 Q300.875,125.8105 300.875,126.1543 Q300.875,126.498 300.5313,126.9043 Q300.0313,127.4824 299.2344,127.8105 Q298.1563,128.2637 296.8594,128.2637 Q295.3438,128.2637 294.1406,127.6387 Q293.1563,127.1387 292.4688,126.0762 Q291.7813,124.998 291.7813,123.7168 L291.7813,122.5605 Q291.7813,121.2324 292.3906,120.0918 Q293.0156,118.9355 294.1094,118.3262 Q295.2031,117.7012 296.4375,117.7012 Q297.1719,117.7012 297.8125,117.873 Q298.4688,118.0293 299.0156,118.3887 Z " fill="#000000"/><text fill="#000000" font-family="sans-serif" font-size="14" lengthAdjust="spacing" textLength="133" x="316.75" y="128.3105">FavItemListFragment</text><line style="stroke:#181818;stroke-width:0.5;" x1="47" x2="687" y1="138.5137" y2="138.5137"/><rect fill="none" height="6" style="stroke:#C82930;stroke-width:1.0;" width="6" x="54" y="150.3242"/><text fill="#000000" font-family="sans-serif" font-size="14" lengthAdjust="spacing" textLength="101" x="66" y="157.6211">param1: String?</text><rect fill="none" height="6" style="stroke:#C82930;stroke-width:1.0;" width="6" x="54" y="168.9453"/><text fill="#000000" font-family="sans-serif" font-size="14" lengthAdjust="spacing" textLength="101" x="66" y="176.2422">param2: String?</text><line style="stroke:#181818;stroke-width:0.5;" x1="47" x2="687" y1="183.7559" y2="183.7559"/><ellipse cx="57" cy="198.5664" fill="#84BE84" rx="3" ry="3" style="stroke:#038048;stroke-width:1.0;"/><text fill="#000000" font-family="sans-serif" font-size="14" lengthAdjust="spacing" textLength="253" x="66" y="202.8633">onCreate(savedInstanceState: Bundle?)</text><ellipse cx="57" cy="217.1875" fill="#84BE84" rx="3" ry="3" style="stroke:#038048;stroke-width:1.0;"/><text fill="#000000" font-family="sans-serif" font-size="14" lengthAdjust="spacing" textLength="616" x="66" y="221.4844">onCreateView(inflater: LayoutInflater, container: ViewGroup?, savedInstanceState: Bundle?): View</text><ellipse cx="57" cy="235.8086" fill="#84BE84" rx="3" ry="3" style="stroke:#038048;stroke-width:1.0;"/><text fill="#000000" font-family="sans-serif" font-size="14" lengthAdjust="spacing" textLength="180" x="66" y="240.1055">showToast(message: String)</text></g><!--class ViewHolder--><g id="elem_ViewHolder"><rect codeLine="145" fill="#F1F1F1" height="48" id="ViewHolder" rx="2.5" ry="2.5" style="stroke:#181818;stroke-width:0.5;" width="102" x="2017" y="836.0137"/><ellipse cx="2032" cy="852.0137" fill="#ADD1B2" rx="11" ry="11" style="stroke:#181818;stroke-width:1.0;"/><path d="M2034.7656,847.8887 Q2034.9219,847.6699 2035.1094,847.5605 Q2035.2969,847.4512 2035.5156,847.4512 Q2035.8906,847.4512 2036.125,847.7168 Q2036.3594,847.9668 2036.3594,848.5762 L2036.3594,850.0293 Q2036.3594,850.6387 2036.125,850.9043 Q2035.8906,851.1699 2035.5156,851.1699 Q2035.1719,851.1699 2034.9688,850.9668 Q2034.7656,850.7793 2034.6563,850.2637 Q2034.6094,849.9043 2034.4219,849.7168 Q2034.0938,849.3418 2033.4844,849.123 Q2032.875,848.9043 2032.25,848.9043 Q2031.4844,848.9043 2030.8438,849.2324 Q2030.2188,849.5605 2029.7188,850.3105 Q2029.2344,851.0605 2029.2344,852.0918 L2029.2344,853.1855 Q2029.2344,854.4199 2030.125,855.248 Q2031.0156,856.0605 2032.6094,856.0605 Q2033.5469,856.0605 2034.2031,855.8105 Q2034.5938,855.6543 2035.0156,855.2168 Q2035.2813,854.9512 2035.4219,854.873 Q2035.5781,854.7949 2035.7813,854.7949 Q2036.1094,854.7949 2036.3594,855.0605 Q2036.625,855.3105 2036.625,855.6543 Q2036.625,855.998 2036.2813,856.4043 Q2035.7813,856.9824 2034.9844,857.3105 Q2033.9063,857.7637 2032.6094,857.7637 Q2031.0938,857.7637 2029.8906,857.1387 Q2028.9063,856.6387 2028.2188,855.5762 Q2027.5313,854.498 2027.5313,853.2168 L2027.5313,852.0605 Q2027.5313,850.7324 2028.1406,849.5918 Q2028.7656,848.4355 2029.8594,847.8262 Q2030.9531,847.2012 2032.1875,847.2012 Q2032.9219,847.2012 2033.5625,847.373 Q2034.2188,847.5293 2034.7656,847.8887 Z " fill="#000000"/><text fill="#000000" font-family="sans-serif" font-size="14" lengthAdjust="spacing" textLength="70" x="2046" y="857.8105">ViewHolder</text><line style="stroke:#181818;stroke-width:0.5;" x1="2018" x2="2118" y1="868.0137" y2="868.0137"/><line style="stroke:#181818;stroke-width:0.5;" x1="2018" x2="2118" y1="876.0137" y2="876.0137"/></g><!--class Adapter--><g id="elem_Adapter"><rect codeLine="148" fill="#F1F1F1" height="48" id="Adapter" rx="2.5" ry="2.5" style="stroke:#181818;stroke-width:0.5;" width="82" x="353" y="1001.0137"/><ellipse cx="368" cy="1017.0137" fill="#ADD1B2" rx="11" ry="11" style="stroke:#181818;stroke-width:1.0;"/><path d="M370.7656,1012.8887 Q370.9219,1012.6699 371.1094,1012.5605 Q371.2969,1012.4512 371.5156,1012.4512 Q371.8906,1012.4512 372.125,1012.7168 Q372.3594,1012.9668 372.3594,1013.5762 L372.3594,1015.0293 Q372.3594,1015.6387 372.125,1015.9043 Q371.8906,1016.1699 371.5156,1016.1699 Q371.1719,1016.1699 370.9688,1015.9668 Q370.7656,1015.7793 370.6563,1015.2637 Q370.6094,1014.9043 370.4219,1014.7168 Q370.0938,1014.3418 369.4844,1014.123 Q368.875,1013.9043 368.25,1013.9043 Q367.4844,1013.9043 366.8438,1014.2324 Q366.2188,1014.5605 365.7188,1015.3105 Q365.2344,1016.0605 365.2344,1017.0918 L365.2344,1018.1855 Q365.2344,1019.4199 366.125,1020.248 Q367.0156,1021.0605 368.6094,1021.0605 Q369.5469,1021.0605 370.2031,1020.8105 Q370.5938,1020.6543 371.0156,1020.2168 Q371.2813,1019.9512 371.4219,1019.873 Q371.5781,1019.7949 371.7813,1019.7949 Q372.1094,1019.7949 372.3594,1020.0605 Q372.625,1020.3105 372.625,1020.6543 Q372.625,1020.998 372.2813,1021.4043 Q371.7813,1021.9824 370.9844,1022.3105 Q369.9063,1022.7637 368.6094,1022.7637 Q367.0938,1022.7637 365.8906,1022.1387 Q364.9063,1021.6387 364.2188,1020.5762 Q363.5313,1019.498 363.5313,1018.2168 L363.5313,1017.0605 Q363.5313,1015.7324 364.1406,1014.5918 Q364.7656,1013.4355 365.8594,1012.8262 Q366.9531,1012.2012 368.1875,1012.2012 Q368.9219,1012.2012 369.5625,1012.373 Q370.2188,1012.5293 370.7656,1012.8887 Z " fill="#000000"/><text fill="#000000" font-family="sans-serif" font-size="14" lengthAdjust="spacing" textLength="50" x="382" y="1022.8105">Adapter</text><line style="stroke:#181818;stroke-width:0.5;" x1="354" x2="434" y1="1033.0137" y2="1033.0137"/><line style="stroke:#181818;stroke-width:0.5;" x1="354" x2="434" y1="1041.0137" y2="1041.0137"/></g><!--class SplashActivity--><g id="elem_SplashActivity"><rect codeLine="151" fill="#F1F1F1" height="66.6211" id="SplashActivity" rx="2.5" ry="2.5" style="stroke:#181818;stroke-width:0.5;" width="279" x="470.5" y="991.5137"/><ellipse cx="562.25" cy="1007.5137" fill="#ADD1B2" rx="11" ry="11" style="stroke:#181818;stroke-width:1.0;"/><path d="M565.0156,1003.3887 Q565.1719,1003.1699 565.3594,1003.0605 Q565.5469,1002.9512 565.7656,1002.9512 Q566.1406,1002.9512 566.375,1003.2168 Q566.6094,1003.4668 566.6094,1004.0762 L566.6094,1005.5293 Q566.6094,1006.1387 566.375,1006.4043 Q566.1406,1006.6699 565.7656,1006.6699 Q565.4219,1006.6699 565.2188,1006.4668 Q565.0156,1006.2793 564.9063,1005.7637 Q564.8594,1005.4043 564.6719,1005.2168 Q564.3438,1004.8418 563.7344,1004.623 Q563.125,1004.4043 562.5,1004.4043 Q561.7344,1004.4043 561.0938,1004.7324 Q560.4688,1005.0605 559.9688,1005.8105 Q559.4844,1006.5605 559.4844,1007.5918 L559.4844,1008.6855 Q559.4844,1009.9199 560.375,1010.748 Q561.2656,1011.5605 562.8594,1011.5605 Q563.7969,1011.5605 564.4531,1011.3105 Q564.8438,1011.1543 565.2656,1010.7168 Q565.5313,1010.4512 565.6719,1010.373 Q565.8281,1010.2949 566.0313,1010.2949 Q566.3594,1010.2949 566.6094,1010.5605 Q566.875,1010.8105 566.875,1011.1543 Q566.875,1011.498 566.5313,1011.9043 Q566.0313,1012.4824 565.2344,1012.8105 Q564.1563,1013.2637 562.8594,1013.2637 Q561.3438,1013.2637 560.1406,1012.6387 Q559.1563,1012.1387 558.4688,1011.0762 Q557.7813,1009.998 557.7813,1008.7168 L557.7813,1007.5605 Q557.7813,1006.2324 558.3906,1005.0918 Q559.0156,1003.9355 560.1094,1003.3262 Q561.2031,1002.7012 562.4375,1002.7012 Q563.1719,1002.7012 563.8125,1002.873 Q564.4688,1003.0293 565.0156,1003.3887 Z " fill="#000000"/><text fill="#000000" font-family="sans-serif" font-size="14" lengthAdjust="spacing" textLength="87" x="582.75" y="1013.3105">SplashActivity</text><line style="stroke:#181818;stroke-width:0.5;" x1="471.5" x2="748.5" y1="1023.5137" y2="1023.5137"/><line style="stroke:#181818;stroke-width:0.5;" x1="471.5" x2="748.5" y1="1031.5137" y2="1031.5137"/><ellipse cx="481.5" cy="1046.3242" fill="#84BE84" rx="3" ry="3" style="stroke:#038048;stroke-width:1.0;"/><text fill="#000000" font-family="sans-serif" font-size="14" lengthAdjust="spacing" textLength="253" x="490.5" y="1050.6211">onCreate(savedInstanceState: Bundle?)</text></g><!--class Fragment--><g id="elem_Fragment"><rect codeLine="158" fill="#F1F1F1" height="85.2422" id="Fragment" rx="2.5" ry="2.5" style="stroke:#181818;stroke-width:0.5;" width="642" x="3978" y="134.5137"/><ellipse cx="4264.25" cy="150.5137" fill="#ADD1B2" rx="11" ry="11" style="stroke:#181818;stroke-width:1.0;"/><path d="M4267.0156,146.3887 Q4267.1719,146.1699 4267.3594,146.0605 Q4267.5469,145.9512 4267.7656,145.9512 Q4268.1406,145.9512 4268.375,146.2168 Q4268.6094,146.4668 4268.6094,147.0762 L4268.6094,148.5293 Q4268.6094,149.1387 4268.375,149.4043 Q4268.1406,149.6699 4267.7656,149.6699 Q4267.4219,149.6699 4267.2188,149.4668 Q4267.0156,149.2793 4266.9063,148.7637 Q4266.8594,148.4043 4266.6719,148.2168 Q4266.3438,147.8418 4265.7344,147.623 Q4265.125,147.4043 4264.5,147.4043 Q4263.7344,147.4043 4263.0938,147.7324 Q4262.4688,148.0605 4261.9688,148.8105 Q4261.4844,149.5605 4261.4844,150.5918 L4261.4844,151.6855 Q4261.4844,152.9199 4262.375,153.748 Q4263.2656,154.5605 4264.8594,154.5605 Q4265.7969,154.5605 4266.4531,154.3105 Q4266.8438,154.1543 4267.2656,153.7168 Q4267.5313,153.4512 4267.6719,153.373 Q4267.8281,153.2949 4268.0313,153.2949 Q4268.3594,153.2949 4268.6094,153.5605 Q4268.875,153.8105 4268.875,154.1543 Q4268.875,154.498 4268.5313,154.9043 Q4268.0313,155.4824 4267.2344,155.8105 Q4266.1563,156.2637 4264.8594,156.2637 Q4263.3438,156.2637 4262.1406,155.6387 Q4261.1563,155.1387 4260.4688,154.0762 Q4259.7813,152.998 4259.7813,151.7168 L4259.7813,150.5605 Q4259.7813,149.2324 4260.3906,148.0918 Q4261.0156,146.9355 4262.1094,146.3262 Q4263.2031,145.7012 4264.4375,145.7012 Q4265.1719,145.7012 4265.8125,145.873 Q4266.4688,146.0293 4267.0156,146.3887 Z " fill="#000000"/><text fill="#000000" font-family="sans-serif" font-size="14" lengthAdjust="spacing" textLength="61" x="4284.75" y="156.3105">Fragment</text><line style="stroke:#181818;stroke-width:0.5;" x1="3979" x2="4619" y1="166.5137" y2="166.5137"/><line style="stroke:#181818;stroke-width:0.5;" x1="3979" x2="4619" y1="174.5137" y2="174.5137"/><ellipse cx="3989" cy="189.3242" fill="#84BE84" rx="3" ry="3" style="stroke:#038048;stroke-width:1.0;"/><text fill="#000000" font-family="sans-serif" font-size="14" lengthAdjust="spacing" textLength="616" x="3998" y="193.6211">onCreateView(inflater: LayoutInflater, container: ViewGroup?, savedInstanceState: Bundle?): View</text><ellipse cx="3989" cy="207.9453" fill="#84BE84" rx="3" ry="3" style="stroke:#038048;stroke-width:1.0;"/><text fill="#000000" font-family="sans-serif" font-size="14" lengthAdjust="spacing" textLength="362" x="3998" y="212.2422">onViewCreated(view: View, savedInstanceState: Bundle?)</text></g><!--class FragmentStateAdapter--><g id="elem_FragmentStateAdapter"><rect codeLine="163" fill="#F1F1F1" height="85.2422" id="FragmentStateAdapter" rx="2.5" ry="2.5" style="stroke:#181818;stroke-width:0.5;" width="278" x="3665" y="134.5137"/><ellipse cx="3727.75" cy="150.5137" fill="#ADD1B2" rx="11" ry="11" style="stroke:#181818;stroke-width:1.0;"/><path d="M3730.5156,146.3887 Q3730.6719,146.1699 3730.8594,146.0605 Q3731.0469,145.9512 3731.2656,145.9512 Q3731.6406,145.9512 3731.875,146.2168 Q3732.1094,146.4668 3732.1094,147.0762 L3732.1094,148.5293 Q3732.1094,149.1387 3731.875,149.4043 Q3731.6406,149.6699 3731.2656,149.6699 Q3730.9219,149.6699 3730.7188,149.4668 Q3730.5156,149.2793 3730.4063,148.7637 Q3730.3594,148.4043 3730.1719,148.2168 Q3729.8438,147.8418 3729.2344,147.623 Q3728.625,147.4043 3728,147.4043 Q3727.2344,147.4043 3726.5938,147.7324 Q3725.9688,148.0605 3725.4688,148.8105 Q3724.9844,149.5605 3724.9844,150.5918 L3724.9844,151.6855 Q3724.9844,152.9199 3725.875,153.748 Q3726.7656,154.5605 3728.3594,154.5605 Q3729.2969,154.5605 3729.9531,154.3105 Q3730.3438,154.1543 3730.7656,153.7168 Q3731.0313,153.4512 3731.1719,153.373 Q3731.3281,153.2949 3731.5313,153.2949 Q3731.8594,153.2949 3732.1094,153.5605 Q3732.375,153.8105 3732.375,154.1543 Q3732.375,154.498 3732.0313,154.9043 Q3731.5313,155.4824 3730.7344,155.8105 Q3729.6563,156.2637 3728.3594,156.2637 Q3726.8438,156.2637 3725.6406,155.6387 Q3724.6563,155.1387 3723.9688,154.0762 Q3723.2813,152.998 3723.2813,151.7168 L3723.2813,150.5605 Q3723.2813,149.2324 3723.8906,148.0918 Q3724.5156,146.9355 3725.6094,146.3262 Q3726.7031,145.7012 3727.9375,145.7012 Q3728.6719,145.7012 3729.3125,145.873 Q3729.9688,146.0293 3730.5156,146.3887 Z " fill="#000000"/><text fill="#000000" font-family="sans-serif" font-size="14" lengthAdjust="spacing" textLength="144" x="3748.25" y="156.3105">FragmentStateAdapter</text><line style="stroke:#181818;stroke-width:0.5;" x1="3666" x2="3942" y1="166.5137" y2="166.5137"/><line style="stroke:#181818;stroke-width:0.5;" x1="3666" x2="3942" y1="174.5137" y2="174.5137"/><ellipse cx="3676" cy="189.3242" fill="#84BE84" rx="3" ry="3" style="stroke:#038048;stroke-width:1.0;"/><text fill="#000000" font-family="sans-serif" font-size="14" lengthAdjust="spacing" textLength="117" x="3685" y="193.6211">getItemCount(): Int</text><ellipse cx="3676" cy="207.9453" fill="#84BE84" rx="3" ry="3" style="stroke:#038048;stroke-width:1.0;"/><text fill="#000000" font-family="sans-serif" font-size="14" lengthAdjust="spacing" textLength="252" x="3685" y="212.2422">createFragment(position: Int): Fragment</text></g><!--class AppCompatActivity--><g id="elem_AppCompatActivity"><rect codeLine="170" fill="#F1F1F1" height="66.6211" id="AppCompatActivity" rx="2.5" ry="2.5" style="stroke:#181818;stroke-width:0.5;" width="279" x="3281.5" y="143.5137"/><ellipse cx="3357.75" cy="159.5137" fill="#ADD1B2" rx="11" ry="11" style="stroke:#181818;stroke-width:1.0;"/><path d="M3360.5156,155.3887 Q3360.6719,155.1699 3360.8594,155.0605 Q3361.0469,154.9512 3361.2656,154.9512 Q3361.6406,154.9512 3361.875,155.2168 Q3362.1094,155.4668 3362.1094,156.0762 L3362.1094,157.5293 Q3362.1094,158.1387 3361.875,158.4043 Q3361.6406,158.6699 3361.2656,158.6699 Q3360.9219,158.6699 3360.7188,158.4668 Q3360.5156,158.2793 3360.4063,157.7637 Q3360.3594,157.4043 3360.1719,157.2168 Q3359.8438,156.8418 3359.2344,156.623 Q3358.625,156.4043 3358,156.4043 Q3357.2344,156.4043 3356.5938,156.7324 Q3355.9688,157.0605 3355.4688,157.8105 Q3354.9844,158.5605 3354.9844,159.5918 L3354.9844,160.6855 Q3354.9844,161.9199 3355.875,162.748 Q3356.7656,163.5605 3358.3594,163.5605 Q3359.2969,163.5605 3359.9531,163.3105 Q3360.3438,163.1543 3360.7656,162.7168 Q3361.0313,162.4512 3361.1719,162.373 Q3361.3281,162.2949 3361.5313,162.2949 Q3361.8594,162.2949 3362.1094,162.5605 Q3362.375,162.8105 3362.375,163.1543 Q3362.375,163.498 3362.0313,163.9043 Q3361.5313,164.4824 3360.7344,164.8105 Q3359.6563,165.2637 3358.3594,165.2637 Q3356.8438,165.2637 3355.6406,164.6387 Q3354.6563,164.1387 3353.9688,163.0762 Q3353.2813,161.998 3353.2813,160.7168 L3353.2813,159.5605 Q3353.2813,158.2324 3353.8906,157.0918 Q3354.5156,155.9355 3355.6094,155.3262 Q3356.7031,154.7012 3357.9375,154.7012 Q3358.6719,154.7012 3359.3125,154.873 Q3359.9688,155.0293 3360.5156,155.3887 Z " fill="#000000"/><text fill="#000000" font-family="sans-serif" font-size="14" lengthAdjust="spacing" textLength="118" x="3378.25" y="165.3105">AppCompatActivity</text><line style="stroke:#181818;stroke-width:0.5;" x1="3282.5" x2="3559.5" y1="175.5137" y2="175.5137"/><line style="stroke:#181818;stroke-width:0.5;" x1="3282.5" x2="3559.5" y1="183.5137" y2="183.5137"/><ellipse cx="3292.5" cy="198.3242" fill="#84BE84" rx="3" ry="3" style="stroke:#038048;stroke-width:1.0;"/><text fill="#000000" font-family="sans-serif" font-size="14" lengthAdjust="spacing" textLength="253" x="3301.5" y="202.6211">onCreate(savedInstanceState: Bundle?)</text></g><!--class Ropa--><g id="elem_Ropa"><rect fill="#F1F1F1" height="48" id="Ropa" rx="2.5" ry="2.5" style="stroke:#181818;stroke-width:0.5;" width="66" x="3209" y="413.5137"/><ellipse cx="3224" cy="429.5137" fill="#ADD1B2" rx="11" ry="11" style="stroke:#181818;stroke-width:1.0;"/><path d="M3226.7656,425.3887 Q3226.9219,425.1699 3227.1094,425.0605 Q3227.2969,424.9512 3227.5156,424.9512 Q3227.8906,424.9512 3228.125,425.2168 Q3228.3594,425.4668 3228.3594,426.0762 L3228.3594,427.5293 Q3228.3594,428.1387 3228.125,428.4043 Q3227.8906,428.6699 3227.5156,428.6699 Q3227.1719,428.6699 3226.9688,428.4668 Q3226.7656,428.2793 3226.6563,427.7637 Q3226.6094,427.4043 3226.4219,427.2168 Q3226.0938,426.8418 3225.4844,426.623 Q3224.875,426.4043 3224.25,426.4043 Q3223.4844,426.4043 3222.8438,426.7324 Q3222.2188,427.0605 3221.7188,427.8105 Q3221.2344,428.5605 3221.2344,429.5918 L3221.2344,430.6855 Q3221.2344,431.9199 3222.125,432.748 Q3223.0156,433.5605 3224.6094,433.5605 Q3225.5469,433.5605 3226.2031,433.3105 Q3226.5938,433.1543 3227.0156,432.7168 Q3227.2813,432.4512 3227.4219,432.373 Q3227.5781,432.2949 3227.7813,432.2949 Q3228.1094,432.2949 3228.3594,432.5605 Q3228.625,432.8105 3228.625,433.1543 Q3228.625,433.498 3228.2813,433.9043 Q3227.7813,434.4824 3226.9844,434.8105 Q3225.9063,435.2637 3224.6094,435.2637 Q3223.0938,435.2637 3221.8906,434.6387 Q3220.9063,434.1387 3220.2188,433.0762 Q3219.5313,431.998 3219.5313,430.7168 L3219.5313,429.5605 Q3219.5313,428.2324 3220.1406,427.0918 Q3220.7656,425.9355 3221.8594,425.3262 Q3222.9531,424.7012 3224.1875,424.7012 Q3224.9219,424.7012 3225.5625,424.873 Q3226.2188,425.0293 3226.7656,425.3887 Z " fill="#000000"/><text fill="#000000" font-family="sans-serif" font-size="14" lengthAdjust="spacing" textLength="34" x="3238" y="435.3105">Ropa</text><line style="stroke:#181818;stroke-width:0.5;" x1="3210" x2="3274" y1="445.5137" y2="445.5137"/><line style="stroke:#181818;stroke-width:0.5;" x1="3210" x2="3274" y1="453.5137" y2="453.5137"/></g><!--link RopaAdapter to RopaViewHolder--><g id="link_RopaAdapter_RopaViewHolder"><path codeLine="178" d="M1232.32,229.0237 C1280.35,252.6237 1340.71,278.3037 1398,291.5137 C2013.48,433.3937 2206.31,191.0937 2818,348.5137 C2856.21,358.3437 2890.5266,374.307 2922.4366,392.057 " fill="none" id="RopaAdapter-to-RopaViewHolder" style="stroke:#181818;stroke-width:1.0;"/><polygon fill="#181818" points="2927.68,394.9737,2921.7593,387.1031,2923.3105,392.5431,2917.8705,394.0943,2927.68,394.9737" style="stroke:#181818;stroke-width:1.0;"/><text fill="#000000" font-family="sans-serif" font-size="13" lengthAdjust="spacing" textLength="21" x="2679" y="314.542">usa</text></g><!--link RopaAdapter to Ropa--><g id="link_RopaAdapter_Ropa"><path codeLine="179" d="M1230.64,229.1037 C1278.86,253.1237 1339.9,279.1537 1398,291.5137 C1433.62,299.0937 2672.64,297.4737 2709,299.5137 C2914.28,311.0437 2987.81,251.3537 3169,348.5137 C3196.29,363.1437 3214.3668,387.4645 3226.7168,408.2645 " fill="none" id="RopaAdapter-to-Ropa" style="stroke:#181818;stroke-width:1.0;"/><polygon fill="#181818" points="3229.78,413.4237,3228.6246,403.6428,3227.2273,409.1244,3221.7457,407.7271,3229.78,413.4237" style="stroke:#181818;stroke-width:1.0;"/><text fill="#000000" font-family="sans-serif" font-size="13" lengthAdjust="spacing" textLength="47" x="3099" y="314.542">muestra</text></g><!--link FavItemListFragment to RopaProvider--><g id="link_FavItemListFragment_RopaProvider"><path codeLine="181" d="M311.26,247.6237 C267.07,302.8037 211.7603,371.8802 182.2203,408.7702 " fill="none" id="FavItemListFragment-to-RopaProvider" style="stroke:#181818;stroke-width:1.0;"/><polygon fill="#181818" points="178.47,413.4537,187.2178,408.9287,181.5953,409.5508,180.9732,403.9282,178.47,413.4537" style="stroke:#181818;stroke-width:1.0;"/><text fill="#000000" font-family="sans-serif" font-size="13" lengthAdjust="spacing" textLength="49" x="264" y="314.542">depende</text></g><!--SRC=[xLZTJjim5BxlK_XY4a4hIECo5wjesKydG8Z2j3jaaaDgpR4zsobK4u-qfzYBxJXfGjow0JQ6AhPUD8dF5_kSxvnynyaMEQ7V2h104fdlmWtD5OUUeibNcdbZv7klH_2tHKQS6Z0a1KvKu5u7IX1YoDbK0qtVtIHJAZ8tWJFTzbg8iONya1dxNjCi1s4N6FVR8VLW3HeoaJAH3SZ5PNNMO5-JrH4fHhYwXSyChYCchZYUwvWSqhaix7XntKVFXQLCE9D3Vj2oK8C-CNG6wLWOIqK24ulOc0mBaN8OR5T8RoatK2sNHZCyho3TqxGcO88bZEfJIEO91rswlEqju3YO08V4hP1IAqrC3jp1Xns0iLhEMnDuTDUC7aEcPP3hqhB1HAy6M5aIBWtKGOH2ByaAbI2IpchIznFBPipEWzIqWGk6EjY8dYlrNZ17o70mY7hG0PxEUIacXL9IssCwOncYpbM4MHjAoO6AzVKtv3Xlk00hqmPMe1U86pr1WTITmjMWDZsSKwdeYPOpbe9-DPAvee99qOe9wnIhy8AZ2dVVVTyJribN6xZtN-t_LEtF3MWCNNPoNeDU8jqhLUhk-oZvNPskYq-3G917FKP3ER_4ZL5CeYePPESjEHVCXjeDOE3SvR6J_JlOoottU-kqaSdzb2gxb9iColtVI1QkhyTaB6oxxPTkDNrVISCiAbS9Gt1j23VApioq6kKZSn8zbfSG9uSokyV14h7fZUK8HD5DCm8sFGXSBsNDAygQ_YZWkfusb4z_ZY0L5UGVrW6dq249M5BkTipLKAGe2hPj1TSdpi6pkO9A2XuiAB9yf5fJJyj3J3uLaCcxyJxnjIQmrwMpvRVR1vGEHaBpDp6PM8sPnbNSzLvz_R1blEho9nmiM_PMBR-ZPCzMXMOghyyaDJRAmHXi6XtKh7Hxp-fNccUQA3nC0-zHZw7cjeTpRjLVLzpd4iBPfGRzymV5rKMg9Kk_a3dPLwgi2zjyTQ6LyMRtQf7HNQhKmWt_HIheswPlojn_89OI_BUt09YJ5PQHtAHCm0hDJMgUfXPEWTC4VGFZNs5j21J6jL_KsiAuWtlE9K6CIM5e48Icl72YItkza53KkERjBKOVbDlx-Wx-0W00]--></g></svg>